<svg width="24" height="24" viewBox="0 0 24 24" fill="none" xmlns="http://www.w3.org/2000/svg">
<path d="M2.49998 11V8.00002C2.77598 8.00002 3 7.776 3 7.5C3 7.224 2.77598 6.99998 2.49998 6.99998C1.12102 6.99998 0 8.12199 0 9.50002V10.5C0 11.327 0.672984 12 1.5 12H2.49998C2.77598 12 3 11.776 3 11.5C3 11.224 2.77598 11 2.49998 11Z" fill="black"/>
<path d="M21.5 6.99998C21.224 6.99998 21 7.224 21 7.5C21 7.776 21.224 8.00002 21.5 8.00002V11C21.224 11 21 11.224 21 11.5C21 11.776 21.224 12 21.5 12H22.5C23.327 12 24 11.327 24 10.5V9.50002C24 8.12199 22.879 6.99998 21.5 6.99998Z" fill="black"/>
<path d="M8.50005 21C8.22405 21 8.00003 21.224 8.00003 21.5H5.00003C5.00003 21.224 4.77602 21 4.50002 21C4.22402 21 4 21.224 4 21.5V22.5C4 23.327 4.67298 24 5.5 24H7.50006C8.32708 24 9.00006 23.327 9.00006 22.5V21.5C9.00006 21.224 8.77605 21 8.50005 21Z" fill="black"/>
<path d="M19.5 21C19.224 21 19 21.224 19 21.5H16C16 21.224 15.776 21 15.5 21C15.224 21 15 21.224 15 21.5V22.5C15 23.327 15.673 24 16.5 24H18.5C19.327 24 20 23.327 20 22.5V21.5C20 21.224 19.776 21 19.5 21Z" fill="black"/>
<path d="M19.5 0H4.49998C3.12097 0 2 1.122 2 2.49998V19.5C2 20.878 3.12102 22 4.49998 22H19.5C20.879 22 22 20.878 22 19.5V2.49998C22 1.122 20.879 0 19.5 0ZM6.5 2.00002H17.5C18.327 2.00002 19 2.673 19 3.50002C19 4.32703 18.327 5.00002 17.5 5.00002H6.5C5.67298 5.00002 5 4.32703 5 3.50002C5 2.673 5.67298 2.00002 6.5 2.00002ZM6.5 19C5.67298 19 5 18.327 5 17.5C5 16.673 5.67298 16 6.5 16C7.32702 16 8 16.673 8 17.5C8 18.327 7.32697 19 6.5 19ZM17.5 19C16.673 19 16 18.327 16 17.5C16 16.673 16.673 16 17.5 16C18.327 16 19 16.673 19 17.5C19 18.327 18.327 19 17.5 19ZM20 12.5C20 13.327 19.327 14 18.5 14H5.49997C4.67295 14 3.99997 13.327 3.99997 12.5V7.5C3.99997 6.67298 4.67295 6 5.49997 6H18.5C19.327 6 20 6.67298 20 7.5V12.5H20Z" fill="black"/>
</svg>
