<svg width="381" height="494" viewBox="0 0 381 494" fill="none" xmlns="http://www.w3.org/2000/svg">
<path d="M342.964 116.465C342.964 116.465 348.909 193.747 340.586 196.125C332.263 198.503 302.54 216.337 254.982 211.581C254.982 211.581 208.612 236.549 215.746 212.77C222.88 188.991 254.982 194.936 254.982 194.936C254.982 194.936 312.051 183.046 314.429 174.724C316.807 166.401 307.295 131.921 310.862 130.732C314.429 129.543 342.964 116.465 342.964 116.465Z" fill="#FFB8B8"/>
<path d="M272.205 241.787C272.205 241.787 276.383 371.856 283.516 388.501C289.459 402.366 292.926 447.579 293.918 462.296C294.117 465.247 294.217 466.972 294.217 466.972C294.217 466.972 313.24 466.972 314.429 462.216C315.618 457.461 319.185 405.147 314.429 388.501C309.673 371.856 321.205 248.787 321.205 248.787L272.205 241.787Z" fill="#2F2E41"/>
<path d="M298.973 461.027C298.973 461.027 287.083 464.594 284.705 469.35C282.327 474.106 243.092 482.428 254.981 488.373C266.871 494.318 302.54 483.617 302.54 483.617C302.54 483.617 321.563 482.428 320.374 475.295C319.185 468.161 314.855 459.371 314.855 459.371L298.973 461.027Z" fill="#2F2E41"/>
<path d="M332.264 464.828C332.264 464.828 320.374 468.395 317.996 473.151C315.618 477.907 276.383 486.229 288.272 492.174C300.162 498.119 335.831 487.418 335.831 487.418C335.831 487.418 354.854 486.229 353.665 479.095C352.476 471.962 348.146 463.172 348.146 463.172L332.264 464.828Z" fill="#2F2E41"/>
<path d="M282.328 248.439L298.973 276.973L326.753 376.184C326.753 376.184 323.941 467.206 327.508 467.206C331.075 467.206 350.098 473.151 351.287 467.206C352.291 462.184 365.608 414.081 358.97 382.063C354.652 361.827 351.875 341.293 350.662 320.637L347.72 265.084C347.72 265.084 359.61 243.683 346.531 240.116C333.453 236.549 282.328 248.439 282.328 248.439Z" fill="#2F2E41"/>
<path d="M297.784 65.34C313.543 65.34 326.319 52.5645 326.319 36.8051C326.319 21.0458 313.543 8.27026 297.784 8.27026C282.025 8.27026 269.249 21.0458 269.249 36.8051C269.249 52.5645 282.025 65.34 297.784 65.34Z" fill="#FFB8B8"/>
<path d="M294.217 55.8285C294.217 55.8285 298.973 93.875 297.784 96.2529C296.595 98.6308 326.319 70.0959 326.319 70.0959C326.319 70.0959 315.618 53.4506 317.996 45.1279L294.217 55.8285Z" fill="#FFB8B8"/>
<path d="M360.798 93.8747C360.798 93.8747 327.508 70.0957 326.319 65.3398L301.351 86.741L297.108 81.6909C297.108 81.6909 277.572 101.008 277.572 109.331C277.572 117.654 276.383 142.622 279.95 149.755C283.516 156.889 269.249 247.25 269.249 247.25C269.249 247.25 281.139 257.95 282.328 259.139C283.516 260.328 331.075 252.005 331.075 252.005C331.075 252.005 354.854 249.627 354.854 246.061C354.854 242.494 347.72 188.991 350.098 174.723C352.476 160.456 360.798 93.8747 360.798 93.8747Z" fill="#7C7C7C"/>
<path d="M307.435 267.479C368.457 373.154 361.465 394.544 288.6 394.8C251.188 374.235 221.799 354.542 200.441 335.735C172.673 311.233 147.546 279.513 125.061 240.574L52.6777 115.225L87.2491 24L227.472 129.004L307.435 267.479ZM263.969 310.135L184.007 171.66L125.227 124.409L178.282 216.287C203.548 260.041 232.109 291.322 263.969 310.135Z" fill="#FF0000"/>
<path d="M285.595 22.5506C289.496 21.1624 293.799 20.4495 297.776 21.6003C303.404 23.2291 307.303 28.163 311.507 32.2442C315.712 36.3254 321.608 39.9417 327.145 38.0226C326.811 35.6229 327.441 33.1886 328.896 31.2517C329.619 30.5296 330.153 29.6407 330.451 28.6635C330.688 27.1352 329.403 25.817 329.017 24.3193C328.342 21.6947 330.193 18.1017 327.917 16.6307C327.316 16.2424 326.555 16.1538 325.969 15.744C323.668 14.1356 326.223 10.1354 324.702 7.77578C324.246 7.16647 323.654 6.67248 322.973 6.33349C311.94 -0.103994 298.448 -0.121664 285.676 0.0404864C283.898 0.0630664 281.422 0.946151 281.924 2.65218C279.51 0.919521 276.349 3.35249 274.403 5.5982L270.421 10.1946C268.55 12.1934 266.917 14.4026 265.554 16.7777C264.338 19.1041 264.069 22.6806 266.49 23.6948C264.69 22.9408 262.507 33.6025 270.804 31.8483C275.626 30.8291 280.352 24.4169 285.595 22.5506Z" fill="#2F2E41"/>
<path d="M367.932 127.166C367.932 127.166 373.877 204.447 365.554 206.825C357.232 209.203 327.508 227.038 279.95 222.282C279.95 222.282 233.581 247.25 240.714 223.471C247.848 199.692 279.95 205.636 279.95 205.636C279.95 205.636 337.02 193.747 339.397 185.424C341.775 177.102 332.264 142.622 335.831 141.433C339.397 140.244 367.932 127.166 367.932 127.166Z" fill="#FFB8B8"/>
<path d="M341.775 96.2529L360.799 93.875C360.799 93.875 379.822 130.733 369.121 136.677C358.421 142.622 331.075 147.378 331.075 145C331.075 142.622 341.775 96.2529 341.775 96.2529Z" fill="#7C7C7C"/>
</svg>
