<svg width="16" height="16" viewBox="0 0 16 16" fill="none" xmlns="http://www.w3.org/2000/svg">
<path fill-rule="evenodd" clip-rule="evenodd" d="M0.439462 13.1673C-0.146324 13.753 -0.146324 14.7028 0.439462 15.2886C1.02525 15.8744 1.975 15.8744 2.56078 15.2886L7.86389 9.98547L13.1673 15.2888C13.753 15.8746 14.7028 15.8746 15.2886 15.2888C15.8744 14.7031 15.8744 13.7533 15.2886 13.1675L9.98521 7.86415L15.2887 2.56066C15.8745 1.97487 15.8745 1.02513 15.2887 0.43934C14.7029 -0.146447 13.7532 -0.146446 13.1674 0.43934L7.86389 5.74283L2.56066 0.439602C1.97487 -0.146184 1.02513 -0.146184 0.43934 0.439602C-0.146447 1.02539 -0.146446 1.97514 0.43934 2.56092L5.74257 7.86415L0.439462 13.1673Z" fill="#FFFFFF"/>
</svg>
