<svg width="31" height="29" viewBox="0 0 31 29" fill="none" xmlns="http://www.w3.org/2000/svg">
<path d="M18.4697 1.00024C12.3224 1.00024 7.30384 4.89418 6.97969 9.78356C3.39086 10.9547 1.00024 13.777 1.00024 16.9156C1.06869 19.2267 2.24584 21.3592 4.15493 22.6306V27.561C4.15493 27.8036 4.34928 28.0002 4.58899 28.0002C4.69847 28.0002 4.80396 27.9584 4.88428 27.8831L8.60044 24.44C9.23956 24.5459 9.88612 24.5988 10.5338 24.5981C14.5857 24.5981 18.1513 22.5604 19.5058 19.5038C19.9573 19.4686 20.4088 19.4218 20.8603 19.3457L25.4216 23.5675C25.5974 23.7324 25.8721 23.722 26.0351 23.5442C26.1096 23.4629 26.1509 23.3563 26.1509 23.2455V17.1908C28.5994 15.4342 30.0002 12.9221 30.0002 10.2754C29.9945 5.16354 24.8254 1.00024 18.4697 1.00024ZM10.5338 23.7198C9.86594 23.7206 9.19947 23.6597 8.54256 23.5382C8.40957 23.5131 8.2726 23.552 8.1721 23.6436L5.02899 26.5714V22.3964C5.0287 22.2508 4.95721 22.1149 4.83797 22.0334C2.93937 20.7393 1.86851 18.8538 1.86851 16.9098C1.86851 14.2396 3.88867 11.8096 6.95074 10.7087C6.98048 11.104 7.04437 11.4959 7.14176 11.8798C7.5688 13.6619 8.54365 15.2611 9.92599 16.4472C10.007 16.5233 12.9476 19.4511 18.5334 19.5213C17.1847 22.0685 14.0705 23.7198 10.5338 23.7198ZM25.4679 16.5994C25.3487 16.681 25.2772 16.8169 25.2769 16.9625V22.2325L21.2829 18.5376C21.2026 18.4623 21.0971 18.4205 20.9877 18.4205H20.9066C20.143 18.564 19.368 18.6365 18.5913 18.6372C14.3889 18.6372 11.8477 16.9859 10.6032 15.926C9.33478 14.8147 8.41362 13.3538 7.95214 11.7217C7.83992 11.24 7.78167 10.7469 7.77849 10.252C7.81322 5.64955 12.5945 1.87272 18.4697 1.87272C24.345 1.87272 29.1262 5.63784 29.1262 10.2696C29.1262 12.6938 27.7949 15.0009 25.4679 16.5994Z" fill="black" stroke="#99999A"/>
</svg>
