<svg width="27" height="27" viewBox="0 0 27 27" fill="none" xmlns="http://www.w3.org/2000/svg">
<path d="M1.16451 8.64429C0.611187 9.35006 0.345816 10.1067 0.379694 10.8858C0.41357 11.744 0.79751 12.4159 1.1137 12.8281C0.746695 13.7428 0.605541 15.1826 1.83076 16.3005C2.7285 17.1192 4.25297 17.4862 6.36464 17.3846C7.84958 17.3168 9.09174 17.0402 9.14256 17.0289H9.1482C9.43051 16.978 9.72976 16.9159 10.0346 16.8482C10.0572 17.2095 9.99513 18.1073 9.32888 20.1286C8.53841 22.5339 8.58358 24.3745 9.47568 25.6054C10.4129 26.8984 11.9092 27 12.3496 27C12.773 27 13.1626 26.825 13.4393 26.5031C14.066 25.7748 13.9926 24.431 13.9136 23.8099C14.6589 21.8112 16.748 16.9103 18.5152 15.5496C18.5491 15.527 18.5773 15.4987 18.6055 15.4705C19.125 14.9228 19.4751 14.33 19.7122 13.8105C20.0453 13.9912 20.4236 14.0928 20.8301 14.0928H24.2743C25.5729 14.0928 26.6231 13.037 26.6231 11.744V2.56901C26.6231 1.27039 25.5673 0.220203 24.2743 0.220203H20.8301C20.3276 0.220203 19.859 0.378294 19.4751 0.649311L18.1482 0.491219C17.9449 0.462988 14.3314 0.00564766 10.6219 0.0790482C9.94996 0.0282326 9.31758 0 8.73038 0C7.71972 0 6.83891 0.0790482 6.10491 0.237141C4.37718 0.604141 3.19714 1.33814 2.59864 2.41656C2.1413 3.2409 2.1413 4.0596 2.2147 4.57905C1.09111 5.59536 0.893496 6.71895 0.93302 7.50941C0.955605 7.96675 1.05723 8.35634 1.16451 8.64429ZM24.2743 1.74467C24.7316 1.74467 25.0986 2.11732 25.0986 2.56901V11.7497C25.0986 12.207 24.726 12.574 24.2743 12.574H20.8301C20.3728 12.574 20.0058 12.2014 20.0058 11.7497V2.57466C20.0058 2.11732 20.3784 1.75031 20.8301 1.75031H24.2743V1.74467ZM2.60993 9.30489C2.84707 9.05646 2.89224 8.67817 2.71156 8.38457C2.71156 8.37892 2.48007 7.98369 2.45184 7.44166C2.41232 6.70201 2.76802 6.04705 3.51332 5.48808C3.77869 5.28482 3.88597 4.93476 3.77304 4.61857C3.77304 4.61292 3.53026 3.86763 3.92549 3.16186C4.30379 2.48432 5.14506 1.99875 6.4211 1.72773C7.44306 1.50753 8.83201 1.46801 10.5372 1.60352C10.5597 1.60352 10.588 1.60352 10.6162 1.60352C14.2467 1.52447 17.9167 1.99874 17.9562 2.00439H17.9619L18.5321 2.07215C18.4983 2.23024 18.4813 2.39962 18.4813 2.56901V11.7497C18.4813 11.9925 18.5208 12.2296 18.5886 12.4498C18.487 12.8281 18.2047 13.6694 17.5384 14.3864C15.0033 16.3965 12.5246 23.1775 12.4173 23.4711C12.3722 23.5897 12.3609 23.7196 12.3835 23.8494C12.4794 24.4818 12.4456 25.2553 12.3101 25.4868C12.0108 25.4812 11.2034 25.3965 10.7178 24.7246C10.1419 23.9285 10.1645 22.5056 10.7856 20.6198C11.7341 17.7459 11.8132 16.2327 11.0623 15.5665C10.6896 15.2334 10.1927 15.2164 9.83139 15.3463C9.48697 15.4253 9.15949 15.4931 8.84895 15.5439C8.82637 15.5496 8.79814 15.5552 8.77555 15.5609C7.04218 15.9391 3.93678 16.1706 2.85836 15.1882C1.94368 14.3526 2.59299 13.2459 2.66639 13.1274C2.8753 12.8112 2.81319 12.399 2.53089 12.1449C2.52524 12.1393 1.93239 11.5803 1.90416 10.8294C1.88157 10.3269 2.11872 9.81305 2.60993 9.30489Z" fill="#242226"/>
</svg>
