<svg width="36" height="36" viewBox="0 0 36 36" fill="none" xmlns="http://www.w3.org/2000/svg">
<g clip-path="url(#clip0)">
<path d="M28.7892 19.225H27.4024V2.47522C27.4024 1.07172 26.2607 -0.0703125 24.8569 -0.0703125H12.077C11.0569 -0.0703125 10.1879 0.36612 9.59162 1.03244C6.07297 5.0713 5.26822 5.58079 5.0831 6.53111C4.80267 7.43199 4.98504 6.29738 4.93176 33.3842C4.93176 34.7877 6.07379 35.9298 7.4773 35.9298H24.8569C26.2607 35.9298 27.4024 34.7877 27.4024 33.3842V32.0065H28.4546C29.968 32.0065 31.1993 30.7752 31.1993 29.2616C31.1993 26.6348 31.1993 23.689 31.1993 21.6351C31.1993 20.3063 30.1182 19.225 28.7892 19.225ZM10.9883 1.67432V4.39317C10.9883 5.25834 10.2843 5.96257 9.41886 5.96257H7.0752C10.8479 1.77649 10.6438 1.91025 10.9883 1.67432ZM25.9962 33.3842C25.9962 34.0124 25.485 34.5235 24.8569 34.5235H7.4773C6.84915 34.5235 6.33801 34.0124 6.33801 33.3842C6.34048 6.34791 6.33224 7.52455 6.3446 7.36882H9.41886C11.0597 7.36882 12.3945 6.03398 12.3945 4.39317V1.33594H24.8569C25.4853 1.33594 25.9962 1.84708 25.9962 2.47522V22.981H17.7891C16.8819 22.981 16.1439 23.719 16.1439 24.6262V30.3613C16.1439 31.2685 16.8819 32.0065 17.7891 32.0065H25.9962V33.3842ZM29.793 29.2616C29.793 29.9999 29.1926 30.6003 28.4546 30.6003C26.8144 30.6003 19.317 30.6003 17.7891 30.6003C17.6572 30.6003 17.5501 30.4932 17.5501 30.3613V24.6262C17.5501 24.4946 17.6572 24.3872 17.7891 24.3872C29.7821 24.3872 29.0781 24.4801 29.793 24.1249V29.2616ZM29.793 21.8601C29.793 22.4783 29.2904 22.981 28.6724 22.981H27.4024V20.6313H28.7892C29.3426 20.6313 29.793 21.0817 29.793 21.6354V21.8601Z" fill="#242226"/>
<path d="M22.5233 11.8504H22.5214C22.1333 11.8504 21.8193 12.1652 21.8193 12.5536C21.8193 12.9419 22.1349 13.2567 22.5233 13.2567C22.9117 13.2567 23.2264 12.9419 23.2264 12.5536C23.2264 12.1652 22.9114 11.8504 22.5233 11.8504Z" fill="#242226"/>
<path d="M9.65527 13.2567H19.7108C20.0989 13.2567 20.4139 12.9419 20.4139 12.5536C20.4139 12.1652 20.0989 11.8504 19.7108 11.8504H9.65527C9.26691 11.8504 8.95215 12.1652 8.95215 12.5536C8.95215 12.9419 9.26691 13.2567 9.65527 13.2567Z" fill="#242226"/>
<path d="M9.65527 17.1917H22.5233C22.9114 17.1917 23.2264 16.877 23.2264 16.4886C23.2264 16.1002 22.9114 15.7855 22.5233 15.7855H9.65527C9.26691 15.7855 8.95215 16.1002 8.95215 16.4886C8.95215 16.877 9.26691 17.1917 9.65527 17.1917Z" fill="#242226"/>
<path d="M23.2264 20.4233C23.2264 20.035 22.9114 19.7202 22.5233 19.7202H9.65527C9.26691 19.7202 8.95215 20.035 8.95215 20.4233C8.95215 20.8117 9.26691 21.1265 9.65527 21.1265H22.5233C22.9114 21.1265 23.2264 20.8117 23.2264 20.4233Z" fill="#242226"/>
</g>
<defs>
<clipPath id="clip0">
<rect width="36" height="36" fill="white"/>
</clipPath>
</defs>
</svg>
