<svg width="30" height="30" viewBox="0 0 30 30" fill="none" xmlns="http://www.w3.org/2000/svg">
<g clip-path="url(#clip0)">
<path d="M23.0358 17.1425H21.9643C21.8078 17.1425 21.6793 17.1926 21.5794 17.2934C21.4787 17.3935 21.4286 17.5219 21.4286 17.6782V23.0353C21.4286 23.772 21.1665 24.4024 20.642 24.927C20.1174 25.4515 19.4868 25.7136 18.7501 25.7136H4.82133C4.08474 25.7136 3.4541 25.4515 2.92948 24.927C2.40498 24.4025 2.14276 23.772 2.14276 23.0353V9.10674C2.14276 8.37014 2.40492 7.73974 2.92948 7.21518C3.4541 6.69056 4.08474 6.4284 4.82133 6.4284H16.6069C16.7634 6.4284 16.8918 6.37803 16.9922 6.2777C17.0925 6.17726 17.1426 6.04902 17.1426 5.89264V4.82105C17.1426 4.66496 17.0925 4.53649 16.9922 4.43622C16.8918 4.33578 16.7634 4.28564 16.6069 4.28564H4.82133C3.49333 4.28564 2.35766 4.7572 1.41443 5.70025C0.471555 6.64324 0 7.77891 0 9.10691V23.0355C0 24.3635 0.471555 25.4993 1.41449 26.442C2.35772 27.3851 3.49339 27.8569 4.82139 27.8569H18.7501C20.078 27.8569 21.2138 27.3851 22.1569 26.442C23.1001 25.4993 23.5717 24.3635 23.5717 23.0355V17.6786C23.5717 17.5221 23.5215 17.3937 23.4207 17.2934C23.3203 17.1926 23.1919 17.1425 23.0358 17.1425Z" fill="#7C7C7C"/>
<path d="M29 2C29 1.44771 28.5523 0.999999 28 0.999999L19 1C18.4477 1 18 1.44772 18 2C18 2.55228 18.4477 3 19 3L27 3L27 11C27 11.5523 27.4477 12 28 12C28.5523 12 29 11.5523 29 11L29 2ZM16.7071 14.7071L28.7071 2.70711L27.2929 1.29289L15.2929 13.2929L16.7071 14.7071Z" fill="#7C7C7C"/>
</g>
<defs>
<clipPath id="clip0">
<rect width="30" height="30" fill="white"/>
</clipPath>
</defs>
</svg>
