<svg width="10" height="19" viewBox="0 0 10 19" fill="none" xmlns="http://www.w3.org/2000/svg">
<path d="M9.43424 0.603843L7.13208 0.600098C4.54567 0.600098 2.87423 2.33881 2.87423 5.02992V7.07237H0.559503C0.359483 7.07237 0.19751 7.23678 0.19751 7.43958V10.3989C0.19751 10.6017 0.359668 10.7659 0.559503 10.7659H2.87423V18.2331C2.87423 18.4359 3.0362 18.6001 3.23622 18.6001H6.25628C6.4563 18.6001 6.61827 18.4357 6.61827 18.2331V10.7659H9.32472C9.52474 10.7659 9.68672 10.6017 9.68672 10.3989L9.68782 7.43958C9.68782 7.34221 9.64959 7.24895 9.58181 7.18004C9.51403 7.11113 9.42168 7.07237 9.32565 7.07237H6.61827V5.34096C6.61827 4.50878 6.81386 4.08632 7.88303 4.08632L9.43387 4.08576C9.63371 4.08576 9.79568 3.92134 9.79568 3.71873V0.970873C9.79568 0.768444 9.63389 0.604217 9.43424 0.603843Z" fill="#555555"/>
</svg>
