<svg width="35" height="35" viewBox="0 0 35 35" fill="none" xmlns="http://www.w3.org/2000/svg">
<path d="M9.60912 31.8371C8.00264 30.0116 6.39622 28.1131 5.37388 25.8494C4.35161 23.4397 4.05951 20.6649 4.57067 18.0362C5.08184 15.4074 6.25013 12.9247 7.92966 10.8071C7.78364 12.6327 8.44083 14.5312 9.68216 15.9186C8.95193 12.4136 10.1203 8.61649 12.4569 5.84172C14.7936 3.06695 18.0065 1.24133 21.3655 0C19.686 1.7525 19.4669 4.52727 20.1241 6.86399C20.7813 9.20064 22.1687 11.2452 23.4101 13.3628C24.6514 15.4804 25.8198 17.671 25.8928 20.0807C26.55 18.8394 27.2802 17.598 27.7184 16.2106C28.1565 14.8232 28.3755 13.3628 28.0105 11.9754C29.3248 13.5819 30.0551 15.1883 30.4202 17.2329C30.7852 19.2775 30.7123 21.3951 30.4932 23.4397C30.2011 25.7034 29.6169 28.04 28.3756 29.9386C26.9152 32.2022 24.5785 33.8086 22.0228 34.6849C17.4954 35.4882 13.0411 34.831 9.60912 31.8371Z" fill="#F51212"/>
<path d="M15.1587 34.5389C21.1464 36.8756 27.0611 29.7925 23.7752 24.316C23.7752 24.2429 23.7021 24.2429 23.7021 24.1699C23.9942 27.1638 23.264 29.3544 21.8766 30.5958C22.6068 28.8433 22.0956 26.7987 21.2194 25.0462C20.3431 23.3667 19.1018 21.8333 18.1525 20.2268C17.2032 18.5474 16.473 16.6488 16.9112 14.7502C15.1587 16.0646 13.9173 18.0362 13.4062 20.1538C12.895 22.2714 13.1871 24.6081 14.1364 26.5796C13.0411 25.7764 12.2379 24.462 12.1648 23.0746C10.9965 24.462 10.2663 26.2875 10.3393 28.1131C10.3394 30.9609 12.603 33.5166 15.1587 34.5389Z" fill="#FFD15C"/>
</svg>
