<svg width="21" height="20" viewBox="0 0 21 20" fill="none" xmlns="http://www.w3.org/2000/svg">
<path d="M14.1621 0.399902H6.96346C3.65089 0.399902 0.9646 3.0867 0.9646 6.3999V13.5999C0.9646 16.9131 3.65089 19.5999 6.96346 19.5999H14.1621C17.4747 19.5999 20.1609 16.9131 20.1609 13.5999V6.3999C20.1609 3.0867 17.4747 0.399902 14.1621 0.399902ZM18.3613 13.5999C18.3613 15.9159 16.4776 17.7999 14.1621 17.7999H6.96346C4.6479 17.7999 2.76426 15.9159 2.76426 13.5999V6.3999C2.76426 4.0839 4.6479 2.1999 6.96346 2.1999H14.1621C16.4776 2.1999 18.3613 4.0839 18.3613 6.3999V13.5999Z" fill="#555555"/>
<path d="M10.5628 5.19971C7.91246 5.19971 5.76367 7.34891 5.76367 9.99971C5.76367 12.6505 7.91246 14.7997 10.5628 14.7997C13.2131 14.7997 15.3618 12.6505 15.3618 9.99971C15.3618 7.34891 13.2131 5.19971 10.5628 5.19971ZM10.5628 12.9997C8.90947 12.9997 7.56333 11.6533 7.56333 9.99971C7.56333 8.34491 8.90947 6.99971 10.5628 6.99971C12.216 6.99971 13.5622 8.34491 13.5622 9.99971C13.5622 11.6533 12.216 12.9997 10.5628 12.9997Z" fill="#555555"/>
<path d="M15.7218 5.4794C16.075 5.4794 16.3613 5.19304 16.3613 4.8398C16.3613 4.48655 16.075 4.2002 15.7218 4.2002C15.3686 4.2002 15.0823 4.48655 15.0823 4.8398C15.0823 5.19304 15.3686 5.4794 15.7218 5.4794Z" fill="#555555"/>
</svg>
