<svg width="27" height="27" viewBox="0 0 27 27" fill="none" xmlns="http://www.w3.org/2000/svg">
<path d="M25.8355 18.3557C26.3888 17.6499 26.6542 16.8933 26.6203 16.1142C26.5864 15.256 26.2025 14.5841 25.8863 14.1719C26.2533 13.2572 26.3945 11.8174 25.1692 10.6995C24.2715 9.8808 22.747 9.5138 20.6354 9.61543C19.1504 9.68319 17.9083 9.95985 17.8574 9.97114H17.8518C17.5695 10.022 17.2702 10.0841 16.9654 10.1518C16.9428 9.79046 17.0049 8.89272 17.6711 6.87139C18.4616 4.46612 18.4164 2.62547 17.5243 1.3946C16.5871 0.101631 15.0908 0 14.6504 0C14.227 0 13.8374 0.175031 13.5607 0.496863C12.934 1.22522 13.0074 2.56901 13.0864 3.19009C12.3411 5.18883 10.252 10.0897 8.4848 11.4504C8.45092 11.473 8.42269 11.5013 8.39446 11.5295C7.87501 12.0772 7.52495 12.67 7.28781 13.1895C6.95468 13.0088 6.57639 12.9072 6.16987 12.9072H2.7257C1.42708 12.9072 0.376892 13.963 0.376892 15.256V24.431C0.376892 25.7296 1.43273 26.7798 2.7257 26.7798H6.16987C6.67238 26.7798 7.14101 26.6217 7.52495 26.3507L8.8518 26.5088C9.05506 26.537 12.6686 26.9944 16.3781 26.921C17.05 26.9718 17.6824 27 18.2696 27C19.2803 27 20.1611 26.921 20.8951 26.7629C22.6228 26.3959 23.8029 25.6619 24.4014 24.5834C24.8587 23.7591 24.8587 22.9404 24.7853 22.421C25.9089 21.4046 26.1065 20.2811 26.067 19.4906C26.0444 19.0332 25.9428 18.6437 25.8355 18.3557ZM2.7257 25.2553C2.26836 25.2553 1.90136 24.8827 1.90136 24.431V15.2503C1.90136 14.793 2.27401 14.426 2.7257 14.426H6.16987C6.62721 14.426 6.99421 14.7986 6.99421 15.2503V24.4253C6.99421 24.8827 6.62156 25.2497 6.16987 25.2497H2.7257V25.2553ZM24.3901 17.6951C24.1529 17.9435 24.1078 18.3218 24.2884 18.6154C24.2884 18.6211 24.5199 19.0163 24.5482 19.5583C24.5877 20.298 24.232 20.9529 23.4867 21.5119C23.2213 21.7152 23.114 22.0652 23.227 22.3814C23.227 22.3871 23.4697 23.1324 23.0745 23.8381C22.6962 24.5157 21.8549 25.0013 20.5789 25.2723C19.5569 25.4925 18.168 25.532 16.4628 25.3965C16.4403 25.3965 16.412 25.3965 16.3838 25.3965C12.7533 25.4755 9.08329 25.0013 9.04377 24.9956H9.03812L8.46786 24.9279C8.50174 24.7698 8.51867 24.6004 8.51867 24.431V15.2503C8.51867 15.0075 8.47915 14.7704 8.4114 14.5502C8.51303 14.1719 8.79534 13.3306 9.46158 12.6136C11.9967 10.6035 14.4754 3.82246 14.5827 3.52886C14.6278 3.41029 14.6391 3.28043 14.6165 3.15056C14.5206 2.51819 14.5544 1.74467 14.6899 1.51317C14.9892 1.51882 15.7966 1.60351 16.2822 2.27541C16.8581 3.07152 16.8355 4.49435 16.2144 6.38018C15.2659 9.25408 15.1868 10.7673 15.9377 11.4335C16.3104 11.7666 16.8073 11.7836 17.1686 11.6537C17.513 11.5747 17.8405 11.5069 18.151 11.4561C18.1736 11.4504 18.2019 11.4448 18.2244 11.4391C19.9578 11.0609 23.0632 10.8294 24.1416 11.8118C25.0563 12.6474 24.407 13.7541 24.3336 13.8726C24.1247 14.1888 24.1868 14.601 24.4691 14.8551C24.4748 14.8607 25.0676 15.4197 25.0958 16.1706C25.1184 16.6731 24.8813 17.187 24.3901 17.6951Z" fill="#2AC154"/>
</svg>
