<svg width="40" height="40" viewBox="0 0 40 40" fill="none" xmlns="http://www.w3.org/2000/svg">
<rect width="40" height="40" rx="5" fill="#F7F7F7"/>
<path d="M30 10.6953V28.3047C30 29.791 28.791 31 27.3047 31H16.4785C14.9922 31 13.7832 29.791 13.7832 28.3047V24.7109H15.5801V28.3047C15.5801 28.8001 15.9831 29.2031 16.4785 29.2031H27.3047C27.8001 29.2031 28.2031 28.8001 28.2031 28.3047V10.6953C28.2031 10.1999 27.8001 9.79688 27.3047 9.79688H16.4785C15.9831 9.79688 15.5801 10.1999 15.5801 10.6953V14.2891H13.7832V10.6953C13.7832 9.20903 14.9922 8 16.4785 8H27.3047C28.791 8 30 9.20903 30 10.6953ZM16.5555 22.4648L17.8262 23.7355L22.0616 19.5L17.8262 15.2645L16.5555 16.5352L18.622 18.6016H7V20.3984H18.622L16.5555 22.4648Z" fill="#7C7C7C"/>
</svg>
