<svg width="473" height="387" viewBox="0 0 473 387" fill="none" xmlns="http://www.w3.org/2000/svg">
<path d="M82.0359 247.254C82.0359 307.256 72.5247 319.402 36.6233 319.547C24.0667 307.87 15.2073 296.689 10.0453 286.009C3.34837 272.098 0 254.087 0 231.977V160.803L42.9014 109.005L82.0359 168.627V247.254ZM48.5518 271.474V192.847L33.0655 166.018V218.186C33.0655 243.03 38.2277 260.791 48.5518 271.474Z" fill="#FF0000"/>
<path d="M179.328 86.6452H151.075V315.073H114.034V85.9002H86.618L96.4543 29.6325H179.328V86.6452Z" fill="white"/>
<path d="M275.669 308.366C275.669 332.465 271.59 351.595 263.427 365.753C255.265 379.914 244.418 386.993 230.886 386.993C229.909 386.993 221.607 384.883 205.982 380.659H206.19V317.309C211.633 324.017 214.841 327.867 215.816 328.861C219.305 332.34 222.933 334.08 226.7 334.08C234.233 334.08 238.977 328.861 240.931 318.428C241.767 313.709 242.186 302.902 242.186 286.01L217.7 315.819C208.91 303.397 203.051 293.089 200.122 284.891C196.075 273.959 194.053 259.801 194.053 242.41V116.459H227.955V224.895C227.955 239.801 228.514 249.863 229.629 255.078C231.442 263.526 235.628 269.738 242.186 273.713V116.459L275.669 117.204V308.366Z" fill="white"/>
<path d="M374.424 314.329H342.616C342.616 312.094 342.684 306.006 342.824 296.068C342.964 286.131 343.034 277.811 343.034 271.103C343.034 227.133 340.314 199.309 334.871 187.632C333.616 184.898 331.314 181.049 327.965 176.08V314.329H293.855V185.768L334.453 114.22C350.777 133.599 361.519 151.486 366.681 167.882C371.844 184.278 374.424 209.617 374.424 243.9V314.329Z" fill="white"/>
<path d="M472.926 167.881L431.281 247.998C437.141 258.185 444.883 266.258 454.51 272.218L429.606 319.546C417.189 310.849 408.191 300.416 402.61 288.244C396.332 274.581 393.194 256.567 393.194 234.211V156.329L435.465 107.514L472.926 167.881ZM439.443 191.356L425.212 163.037V216.695L439.443 191.356Z" fill="white"/>
<path d="M186.662 348.685H0V386.993H186.662V348.685Z" fill="#FF0000"/>
<path d="M473 348.685H286.338V386.993H473V348.685Z" fill="#FF0000"/>
<path fill-rule="evenodd" clip-rule="evenodd" d="M258.487 107.896L247.239 88.414C238.913 86.433 237.187 81.4293 239.302 74.6659C241.402 64.7658 239.87 53.9448 236.545 42.6703L238.775 41.3829L254.281 68.2406L277.105 55.0633C284.329 50.8924 287.494 43.2488 296.606 37.9885C311.416 29.4375 326.073 27.0567 329.316 32.6743C332.56 38.2925 323.17 49.7948 308.359 58.3458C299.248 63.6061 291.776 62.104 283.821 66.6964L260.998 79.8737L272.504 99.8033L258.487 107.896Z" fill="#FF0000"/>
</svg>
