<svg width="35" height="26" viewBox="0 0 35 26" fill="none" xmlns="http://www.w3.org/2000/svg">
<path d="M29.994 0H4.17781C1.8733 0 0 1.8733 0 4.17781V21.8222C0 24.1267 1.8733 26 4.17781 26H29.987C32.2915 26 34.1648 24.1267 34.1648 21.8222V4.18488C34.1718 1.88037 32.2985 0 29.994 0ZM32.2632 21.8222C32.2632 23.0734 31.2452 24.0914 29.994 24.0914H4.17781C2.92659 24.0914 1.90865 23.0734 1.90865 21.8222V4.18488C1.90865 2.93366 2.92659 1.91571 4.17781 1.91571H29.987C31.2382 1.91571 32.2561 2.93366 32.2561 4.18488V21.8222H32.2632Z" fill="#7C7C7C"/>
<path d="M21.5467 12.7808L29.9024 5.28763C30.2912 4.93418 30.3265 4.33331 29.973 3.93744C29.6196 3.54864 29.0187 3.5133 28.6229 3.86675L17.1003 14.2088L14.8523 12.2012C14.8453 12.1941 14.8382 12.187 14.8382 12.18C14.7887 12.1305 14.7392 12.0881 14.6827 12.0457L5.53531 3.85968C5.13944 3.50623 4.53857 3.54157 4.18512 3.93744C3.83167 4.33331 3.86701 4.93418 4.26288 5.28763L12.7175 12.8445L4.29823 20.7265C3.9165 21.087 3.89529 21.6878 4.25581 22.0766C4.44668 22.2746 4.70116 22.3806 4.95565 22.3806C5.18893 22.3806 5.42221 22.2958 5.606 22.1261L14.1525 14.131L16.4711 16.2023C16.6549 16.3648 16.8812 16.4426 17.1074 16.4426C17.3336 16.4426 17.5668 16.3578 17.7436 16.1952L20.1259 14.0603L28.6229 22.1332C28.8067 22.3099 29.047 22.3948 29.2803 22.3948C29.5348 22.3948 29.7822 22.2958 29.973 22.0979C30.3336 21.7161 30.3194 21.1082 29.9377 20.7477L21.5467 12.7808Z" fill="#7C7C7C"/>
</svg>
