<svg width="23" height="32" viewBox="0 0 23 32" fill="none" xmlns="http://www.w3.org/2000/svg">
<path d="M11.5469 1C5.73133 1 1 5.73133 1 11.5469C1 13.5118 1.54428 15.4293 2.57436 17.0929L10.9465 30.5845C11.1069 30.843 11.3894 31 11.6933 31C11.6956 31 11.6979 31 11.7003 31C12.0068 30.9976 12.2899 30.8357 12.4473 30.5727L20.6061 16.9504C21.5794 15.322 22.0938 13.4535 22.0938 11.5469C22.0938 5.73133 17.3624 1 11.5469 1ZM19.0976 16.0479L11.68 28.4328L4.06838 16.1668C3.21098 14.7821 2.74609 13.1846 2.74609 11.5469C2.74609 6.70059 6.70059 2.74609 11.5469 2.74609C16.3932 2.74609 20.3418 6.70059 20.3418 11.5469C20.3418 13.136 19.9076 14.6927 19.0976 16.0479Z" fill="#7C7C7C" stroke="#7C7C7C" stroke-width="0.5"/>
<circle cx="11.5469" cy="12" r="4.15" stroke="#7C7C7C" stroke-width="1.7"/>
</svg>
