<svg width="13" height="20" viewBox="0 0 13 20" fill="none" xmlns="http://www.w3.org/2000/svg">
<path d="M6.7795 10.7902C9.65076 10.7902 11.9784 8.46424 11.9784 5.59502C11.9784 2.7258 9.65079 0.399902 6.7795 0.399902C3.90821 0.399902 1.58063 2.72584 1.58063 5.59506C1.58415 8.46278 3.90971 10.7867 6.7795 10.7902ZM6.7795 2.79766C8.32556 2.79766 9.57892 4.05008 9.57892 5.59506C9.57892 7.14004 8.3256 8.39246 6.7795 8.39246C5.2334 8.39246 3.98008 7.14004 3.98008 5.59506C3.98008 4.05008 5.23344 2.79766 6.7795 2.79766Z" fill="#555555"/>
<path d="M11.8721 13.2521C12.4371 12.8802 12.7775 12.2497 12.7783 11.5737C12.7861 11.0126 12.4693 10.4974 11.9648 10.2509C11.4466 9.99219 10.8261 10.0504 10.3652 10.4012C8.22876 11.9576 5.33111 11.9576 3.1947 10.4012C2.73303 10.0523 2.11369 9.9941 1.59503 10.2509C1.0908 10.4973 0.773804 11.012 0.780815 11.5728C0.782014 12.2488 1.12233 12.8791 1.68704 13.2513C2.41153 13.7327 3.20051 14.1094 4.03055 14.3702C4.17133 14.4139 4.31662 14.4544 4.46647 14.4917L2.0494 16.8535C1.41533 17.4683 1.4 18.4803 2.0152 19.1139C2.63041 19.7475 3.64311 19.7628 4.27721 19.1481C4.29041 19.1353 4.30338 19.1223 4.31613 19.109L6.77962 16.561L9.24791 19.1138C9.86259 19.7479 10.8753 19.764 11.5099 19.1498C12.1444 18.5355 12.1606 17.5235 11.5459 16.8894C11.533 16.8762 11.5199 16.8631 11.5066 16.8503L9.09352 14.4909C9.24333 14.4525 9.38918 14.4118 9.53101 14.3686C10.3601 14.1088 11.1484 13.7329 11.8721 13.2521Z" fill="#555555"/>
</svg>
