<svg width="31" height="31" viewBox="0 0 31 31" fill="none" xmlns="http://www.w3.org/2000/svg">
<path d="M24.7091 18.584C24.0949 17.9445 23.3541 17.6026 22.569 17.6026C21.7902 17.6026 21.0431 17.9382 20.4036 18.5777L18.4027 20.5722C18.2381 20.4835 18.0735 20.4012 17.9152 20.3189C17.6873 20.2049 17.472 20.0973 17.2884 19.9833C15.4142 18.793 13.7109 17.2417 12.0774 15.2345C11.2859 14.2341 10.754 13.392 10.3678 12.5372C10.887 12.0624 11.3682 11.5685 11.8368 11.0936C12.0141 10.9163 12.1913 10.7327 12.3686 10.5554C13.6983 9.22576 13.6983 7.50353 12.3686 6.17388L10.6401 4.44532C10.4438 4.24904 10.2412 4.04642 10.0512 3.84381C9.67132 3.45124 9.27242 3.04601 8.86086 2.66611C8.24669 2.05827 7.51221 1.73535 6.73974 1.73535C5.96727 1.73535 5.22013 2.05827 4.58696 2.66611C4.58063 2.67244 4.58063 2.67244 4.5743 2.67878L2.42152 4.85055C1.61106 5.66101 1.14885 6.64875 1.04754 7.79479C0.895577 9.64365 1.4401 11.3659 1.858 12.4929C2.88373 15.2599 4.41601 17.8242 6.70175 20.5722C9.47504 23.8837 12.8118 26.4986 16.6235 28.3412C18.0798 29.0313 20.0237 29.8481 22.1954 29.9874C22.3284 29.9937 22.4677 30.0001 22.5943 30.0001C24.057 30.0001 25.2853 29.4745 26.2477 28.4298C26.2541 28.4172 26.2667 28.4108 26.2731 28.3982C26.6023 27.9993 26.9822 27.6384 27.3811 27.2521C27.6534 26.9925 27.932 26.7203 28.2042 26.4353C28.8311 25.7832 29.1603 25.0234 29.1603 24.2446C29.1603 23.4594 28.8247 22.706 28.1852 22.0728L24.7091 18.584ZM26.9759 25.2513C26.9695 25.2513 26.9695 25.2576 26.9759 25.2513C26.7289 25.5172 26.4757 25.7578 26.2034 26.0238C25.7918 26.4163 25.3739 26.8279 24.9814 27.2901C24.3419 27.9739 23.5884 28.2968 22.6007 28.2968C22.5057 28.2968 22.4044 28.2968 22.3094 28.2905C20.4289 28.1702 18.6813 27.4357 17.3707 26.8089C13.7869 25.074 10.6401 22.611 8.02508 19.4894C5.86597 16.8871 4.42234 14.4811 3.46625 11.8977C2.8774 10.3211 2.66212 9.09279 2.7571 7.93409C2.82042 7.19328 3.10534 6.57911 3.63087 6.05357L5.78999 3.89446C6.10024 3.6032 6.42949 3.44491 6.7524 3.44491C7.1513 3.44491 7.47422 3.68552 7.67683 3.88813C7.68317 3.89446 7.6895 3.90079 7.69583 3.90713C8.08206 4.26803 8.4493 4.6416 8.83554 5.0405C9.03182 5.24312 9.23443 5.44573 9.43705 5.65468L11.1656 7.38323C11.8368 8.05439 11.8368 8.6749 11.1656 9.34606C10.982 9.52968 10.8047 9.7133 10.6211 9.89058C10.0892 10.4351 9.58268 10.9416 9.03182 11.4355C9.01915 11.4482 9.00649 11.4545 9.00016 11.4672C8.45563 12.0117 8.55694 12.5436 8.67091 12.9045C8.67724 12.9235 8.68357 12.9425 8.68991 12.9615C9.13946 14.0505 9.77263 15.0763 10.735 16.2983L10.7414 16.3046C12.4889 18.4574 14.3315 20.1353 16.3639 21.4206C16.6235 21.5852 16.8895 21.7182 17.1427 21.8448C17.3707 21.9588 17.586 22.0665 17.7696 22.1804C17.7949 22.1931 17.8202 22.2121 17.8456 22.2247C18.0608 22.3324 18.2634 22.383 18.4724 22.383C18.9979 22.383 19.3272 22.0538 19.4348 21.9461L21.6003 19.7807C21.8155 19.5654 22.1574 19.3058 22.5563 19.3058C22.9489 19.3058 23.2718 19.5528 23.4681 19.768C23.4744 19.7744 23.4744 19.7744 23.4808 19.7807L26.9695 23.2695C27.6217 23.9153 27.6217 24.5801 26.9759 25.2513Z" fill="#7C7C7C" stroke="#7C7C7C" stroke-width="0.2"/>
<path d="M17.2124 7.13611C18.8713 7.4147 20.3782 8.19983 21.5813 9.40286C22.7843 10.6059 23.5631 12.1128 23.848 13.7717C23.9176 14.1896 24.2786 14.4809 24.6901 14.4809C24.7408 14.4809 24.7851 14.4746 24.8357 14.4682C25.3043 14.3922 25.6145 13.949 25.5386 13.4805C25.1966 11.4733 24.2469 9.64346 22.7969 8.1935C21.347 6.74354 19.5171 5.79379 17.51 5.45187C17.0414 5.37589 16.6045 5.68615 16.5222 6.14836C16.4399 6.61058 16.7438 7.06013 17.2124 7.13611Z" fill="#7C7C7C"/>
<path d="M30.9644 13.2336C30.4009 9.92848 28.8433 6.92092 26.4499 4.52754C24.0565 2.13415 21.049 0.576553 17.7438 0.0130316C17.2816 -0.0692806 16.8447 0.247305 16.7624 0.709519C16.6864 1.17807 16.9967 1.61495 17.4652 1.69727C20.4158 2.19747 23.1068 3.59678 25.2469 5.73056C27.387 7.87068 28.78 10.5617 29.2802 13.5122C29.3498 13.9301 29.7108 14.2214 30.1223 14.2214C30.173 14.2214 30.2173 14.215 30.2679 14.2087C30.7302 14.1391 31.0467 13.6958 30.9644 13.2336Z" fill="#7C7C7C"/>
</svg>
