<svg width="22" height="22" viewBox="0 0 22 22" fill="none" xmlns="http://www.w3.org/2000/svg">
<path fill-rule="evenodd" clip-rule="evenodd" d="M14 8.03617C14 11.3784 11.3052 14.0723 8 14.0723C4.69479 14.0723 2 11.3784 2 8.03617C2 4.69397 4.69479 2 8 2C11.3052 2 14 4.69397 14 8.03617ZM12.4423 14.7206C11.1715 15.5744 9.64364 16.0723 8 16.0723C3.58172 16.0723 0 12.4744 0 8.03617C0 3.59792 3.58172 0 8 0C12.4183 0 16 3.59792 16 8.03617C16 10.0993 15.2261 11.9808 13.9539 13.4038L21.1344 20.5856L19.7203 22L12.4423 14.7206Z" fill="#7C7C7C"/>
</svg>
