<svg width="32" height="27" viewBox="0 0 32 27" fill="none" xmlns="http://www.w3.org/2000/svg">
<path d="M30.1021 6.91221L29.5078 6.39518C28.9135 5.87816 28.3181 5.36023 27.7179 4.85314C27.0864 4.31896 26.452 3.75092 25.8385 3.20048C25.1297 2.56515 24.3966 1.90815 23.6528 1.29088C23.553 1.20825 23.4507 1.11387 23.3443 1.01679C22.8115 0.529117 22.0367 -0.093569 21.1895 0.0120933C20.0403 0.150267 19.1474 1.57987 19.1474 2.77602V5.93054C19.1474 5.93009 19.1157 5.92964 19.0472 5.92964C16.536 5.92964 4.05317 6.7072 4.05317 22.059C4.05317 22.4997 4.33596 22.874 4.68981 22.9476C4.73069 22.9566 4.78371 22.9602 4.82421 22.9602C5.13278 22.9602 5.42109 22.7209 5.52566 22.3534C5.61845 22.0282 7.81927 14.3939 17.7077 14.3939C18.204 14.3939 18.7788 14.4138 19.147 14.4526V17.3945C19.147 18.3757 19.7376 19.3573 20.509 19.8942C20.7775 20.0812 21.1107 20.176 21.4086 20.176C22.1409 20.176 22.75 19.6183 23.2205 19.1699C23.3468 19.0498 23.4776 18.9342 23.5913 18.8448C24.0295 18.4985 24.4677 18.1255 24.8856 17.7647C25.0973 17.5823 25.3116 17.3994 25.5223 17.222C26.6803 16.2484 27.8416 15.2252 28.9639 14.2363L29.2839 13.9546C29.4297 13.8268 29.5781 13.7008 29.7262 13.5744C29.8499 13.4696 29.9732 13.3644 30.0723 13.2777C30.9309 12.5895 32.0002 11.7329 32.0002 10.0848C32.001 8.49714 31.1162 7.75886 30.1021 6.91221ZM29.2445 11.7853C29.1271 11.8878 29.0074 11.989 28.8881 12.0906C28.7334 12.222 28.5784 12.3538 28.426 12.4879L28.106 12.7701C26.9903 13.7536 25.8371 14.7705 24.6923 15.7332C24.4762 15.9152 24.2604 16.1017 24.0442 16.2882C23.6385 16.6381 23.2194 17.0003 22.807 17.3254C22.6494 17.4491 22.4926 17.5986 22.3409 17.7435C22.0633 18.0077 21.6833 18.3698 21.4553 18.3698C21.4273 18.3698 21.2952 18.3644 21.2366 18.3233C20.9376 18.1151 20.6202 17.7155 20.6202 17.394V13.6136C20.6202 13.1449 20.4199 12.7543 20.0392 12.7142C19.2449 12.6297 18.5074 12.5877 17.757 12.5877C11.2348 12.5877 7.70033 15.6903 5.86479 18.2903C6.54745 14.5063 8.34581 11.6878 11.2146 9.8843C14.2991 7.9449 17.7817 7.73583 19.1334 7.73583C19.524 7.73583 19.7557 7.66674 19.7685 7.6681C19.7844 7.669 19.8035 7.58366 19.8194 7.58366H20.0679C20.4744 7.58366 20.6202 7.35111 20.6202 6.8526V2.77602C20.6202 2.35924 21.0429 1.84448 21.3335 1.80926C21.6299 1.78397 22.0655 2.1416 22.4167 2.46355C22.5427 2.5787 22.687 2.68978 22.8045 2.78686C23.5258 3.38561 24.2593 4.03313 24.9578 4.65898C25.5793 5.21619 26.2281 5.79282 26.8765 6.34055C27.4708 6.84312 28.064 7.35653 28.6524 7.86904L29.2607 8.39645C30.3378 9.29503 30.5274 9.54789 30.5274 10.0852C30.5274 10.6592 30.1393 11.0674 29.2445 11.7853Z" fill="#99999A"/>
<path d="M22.7124 27.0002C24.5634 27.0002 25.7752 25.4401 25.7752 23.1435V20.8505C25.7752 20.352 25.4453 19.9474 25.0388 19.9474C24.6323 19.9474 24.3024 20.352 24.3024 20.8505V23.1435C24.3024 24.4516 23.757 25.194 22.7124 25.194H3.60395C2.5122 25.194 1.4731 24.3898 1.4731 23.1435V8.19452C1.4731 6.95683 2.53061 5.77739 3.60395 5.77739H10.8626C11.2691 5.77739 11.599 5.3728 11.599 4.87429C11.599 4.37578 11.2691 3.97119 10.8626 3.97119H3.60395C1.71833 3.97119 0.000244141 5.96026 0.000244141 8.19452V23.1435C0.000244141 25.3651 1.71833 27.0002 3.60395 27.0002H22.7124Z" fill="#99999A"/>
</svg>
