<svg width="29" height="29" viewBox="0 0 29 29" fill="none" xmlns="http://www.w3.org/2000/svg">
<path d="M26.5839 2.71875H22.6562V0.90625C22.6562 0.405094 22.2512 0 21.75 0C21.2488 0 20.8438 0.405094 20.8438 0.90625V2.71875H15.4062V0.90625C15.4062 0.405094 15.0002 0 14.5 0C13.9998 0 13.5938 0.405094 13.5938 0.90625V2.71875H8.15625V0.90625C8.15625 0.405094 7.75025 0 7.25 0C6.74975 0 6.34375 0.405094 6.34375 0.90625V2.71875H2.41697C1.08206 2.71875 0 3.79991 0 5.13481V26.583C0 27.9179 1.08206 29 2.41697 29H26.5839C27.9188 29 29 27.9179 29 26.583V5.13481C29 3.79991 27.9188 2.71875 26.5839 2.71875ZM27.1875 26.583C27.1875 26.9165 26.9165 27.1875 26.5839 27.1875H2.41697C2.08347 27.1875 1.8125 26.9165 1.8125 26.583V5.13481C1.8125 4.80222 2.08347 4.53125 2.41697 4.53125H6.34375V6.34375C6.34375 6.84491 6.74975 7.25 7.25 7.25C7.75025 7.25 8.15625 6.84491 8.15625 6.34375V4.53125H13.5938V6.34375C13.5938 6.84491 13.9998 7.25 14.5 7.25C15.0002 7.25 15.4062 6.84491 15.4062 6.34375V4.53125H20.8438V6.34375C20.8438 6.84491 21.2488 7.25 21.75 7.25C22.2512 7.25 22.6562 6.84491 22.6562 6.34375V4.53125H26.5839C26.9165 4.53125 27.1875 4.80222 27.1875 5.13481V26.583Z" fill="#242226"/>
<path d="M9.96875 10.875H6.34375V13.5938H9.96875V10.875Z" fill="#242226"/>
<path d="M9.96875 15.4062H6.34375V18.125H9.96875V15.4062Z" fill="#242226"/>
<path d="M9.96875 19.9375H6.34375V22.6562H9.96875V19.9375Z" fill="#242226"/>
<path d="M16.3125 19.9375H12.6875V22.6562H16.3125V19.9375Z" fill="#242226"/>
<path d="M16.3125 15.4062H12.6875V18.125H16.3125V15.4062Z" fill="#242226"/>
<path d="M16.3125 10.875H12.6875V13.5938H16.3125V10.875Z" fill="#242226"/>
<path d="M22.6562 19.9375H19.0312V22.6562H22.6562V19.9375Z" fill="#242226"/>
<path d="M22.6562 15.4062H19.0312V18.125H22.6562V15.4062Z" fill="#242226"/>
<path d="M22.6562 10.875H19.0312V13.5938H22.6562V10.875Z" fill="#242226"/>
</svg>
