<svg width="25" height="24" viewBox="0 0 25 24" fill="none" xmlns="http://www.w3.org/2000/svg">
<path fill-rule="evenodd" clip-rule="evenodd" d="M4.82795 0.965357C4.6775 0.814906 4.45475 0.765668 4.25545 0.837571C4.05615 0.909475 3.91665 1.08963 3.89711 1.30143L3.51141 5.54648C3.49695 5.7071 3.55439 5.86692 3.66889 5.98142C3.78378 6.09631 3.94283 6.15376 4.10422 6.1393L8.34928 5.7536C8.56069 5.73445 8.74123 5.59533 8.81313 5.39603C8.88465 5.19634 8.8358 4.97399 8.68535 4.82354L7.55052 3.68871C11.3434 1.30417 16.4213 1.75434 19.7202 5.05332C23.5503 8.88337 23.5507 15.1159 19.7202 18.9464C15.8906 22.776 9.658 22.7756 5.82796 18.9456C3.35627 16.4739 2.38166 12.8373 3.28397 9.45586C3.44028 8.87359 3.09405 8.2757 2.5114 8.12056C1.92796 7.96464 1.33046 8.31048 1.17454 8.89313C0.0721431 13.0241 1.26363 17.4677 4.28476 20.4888C8.96632 25.1703 16.5834 25.1703 21.2646 20.4892C25.9458 15.808 25.9458 8.19012 21.2646 3.50895C17.111 -0.64466 10.6455 -1.11008 5.97176 2.10917L4.82795 0.965357ZM11.5181 4.93591C11.5181 4.33298 12.0067 3.84444 12.6096 3.84444C13.212 3.84444 13.7011 4.33353 13.7022 4.93591V11.56C14.1521 11.875 14.4521 12.379 14.503 12.9559L18.3035 15.1505C18.8263 15.4517 19.0049 16.1199 18.7037 16.641C18.5014 16.9914 18.1344 17.187 17.7575 17.187C17.5718 17.187 17.385 17.14 17.2126 17.04L13.4159 14.8488C13.1706 14.9643 12.8986 15.0333 12.6102 15.0333C11.5568 15.0333 10.6997 14.1762 10.6997 13.1228C10.6997 12.4751 11.0246 11.9048 11.5181 11.5588V4.93591ZM11.7911 13.1228C11.7911 13.5733 12.1581 13.9408 12.6096 13.9408C13.0606 13.9408 13.4281 13.5733 13.4281 13.1228C13.4281 12.6719 13.0606 12.3044 12.6096 12.3044C12.1587 12.3044 11.7911 12.6719 11.7911 13.1228Z" fill="black"/>
</svg>
