<svg width="24" height="24" viewBox="0 0 24 24" fill="none" xmlns="http://www.w3.org/2000/svg">
<g clip-path="url(#clip0)">
<path d="M16.499 17C16.7752 17 16.9991 16.7762 16.9991 16.5C16.9991 16.2238 16.7752 16 16.499 16C16.2229 16 15.999 16.2238 15.999 16.5C15.999 16.7762 16.2229 17 16.499 17Z" fill="black"/>
<path d="M19.123 5.334C19.036 4.02502 17.94 3 16.628 3H7.36999C6.05801 3 4.96198 4.02502 4.87498 5.334L3.99902 18.5C3.99902 19.973 8.21501 21 11.999 21C15.7831 21 19.9991 19.973 19.998 18.467L19.123 5.334ZM6.81302 6.408C6.86201 5.61802 7.52004 5.00002 8.31002 5.00002H15.688C16.479 5.00002 17.136 5.61802 17.185 6.408L17.498 11.47C17.499 12.892 13.289 13 11.999 13C10.709 13 6.49901 12.892 6.49901 11.5L6.81302 6.408ZM7.49899 18C6.67198 18 5.99899 17.327 5.99899 16.5C5.99899 15.673 6.67198 15 7.49899 15C8.32601 15 8.99899 15.673 8.99899 16.5C8.99899 17.327 8.32601 18 7.49899 18ZM13.499 17H10.499C10.223 17 9.99898 16.776 9.99898 16.5C9.99898 16.224 10.223 16 10.499 16H13.499C13.775 16 13.999 16.224 13.999 16.5C13.999 16.776 13.775 17 13.499 17ZM16.499 18C15.672 18 14.999 17.327 14.999 16.5C14.999 15.673 15.672 15 16.499 15C17.326 15 17.999 15.673 17.999 16.5C17.999 17.327 17.326 18 16.499 18Z" fill="black"/>
<path d="M7.49904 17C7.77519 17 7.99905 16.7762 7.99905 16.5C7.99905 16.2238 7.77519 16 7.49904 16C7.22289 16 6.99902 16.2238 6.99902 16.5C6.99902 16.7762 7.22289 17 7.49904 17Z" fill="black"/>
<path d="M16.8699 1.164C16.7619 1.04498 15.7069 0 11.9989 0C8.29091 0 7.23594 1.04498 7.12892 1.164C6.94794 1.36402 6.96294 1.66598 7.15794 1.854C7.35195 2.04202 7.66695 2.03602 7.85895 1.84702C7.86795 1.83802 8.76397 1.00003 11.999 1.00003C15.229 1.00003 16.127 1.83605 16.1279 1.83605C16.2269 1.94503 16.3629 2.00006 16.499 2.00006C16.619 2.00006 16.739 1.95708 16.835 1.87106C17.0399 1.68502 17.0559 1.36898 16.8699 1.164Z" fill="black"/>
<path d="M13.7563 0.570984C13.5193 0.427968 13.2133 0.504984 13.0703 0.741984L11.9993 2.52797L10.9273 0.741984C10.7853 0.505968 10.4783 0.427968 10.2413 0.570984C10.0053 0.712968 9.92829 1.02 10.0703 1.257L11.5703 3.75698C11.6612 3.90797 11.8232 3.99998 11.9993 3.99998C12.1753 3.99998 12.3373 3.90797 12.4273 3.75698L13.9273 1.257C14.0693 1.02 13.9933 0.713015 13.7563 0.570984Z" fill="black"/>
<path d="M6.82571 19.62C6.61669 19.44 6.30071 19.464 6.12071 19.674L3.12071 23.174C2.94071 23.384 2.96471 23.699 3.17471 23.879C3.26869 23.96 3.38471 24 3.49969 24C3.64069 24 3.78071 23.941 3.87971 23.825L6.87971 20.325C7.05971 20.115 7.03571 19.8 6.82571 19.62Z" fill="black"/>
<path d="M20.8797 23.174L17.8797 19.674C17.6997 19.464 17.3847 19.44 17.1747 19.62C16.9647 19.8 16.9407 20.116 17.1207 20.325L20.1207 23.825C20.2187 23.941 20.3587 24 20.4997 24C20.6147 24 20.7307 23.96 20.8257 23.879C21.0357 23.699 21.0597 23.383 20.8797 23.174Z" fill="black"/>
<path d="M19.499 22H4.49904C4.22304 22 3.99902 22.224 3.99902 22.5C3.99902 22.776 4.22304 23 4.49904 23H19.499C19.775 23 19.9991 22.776 19.9991 22.5C19.9991 22.224 19.775 22 19.499 22Z" fill="black"/>
<path d="M17.4991 20H6.49904C6.22304 20 5.99902 20.224 5.99902 20.5C5.99902 20.776 6.22304 21 6.49904 21H17.4991C17.7751 21 17.9991 20.776 17.9991 20.5C17.999 20.224 17.7751 20 17.4991 20Z" fill="black"/>
</g>
<defs>
<clipPath id="clip0">
<rect width="24" height="24" fill="white"/>
</clipPath>
</defs>
</svg>
