<svg width="24" height="24" viewBox="0 0 24 24" fill="none" xmlns="http://www.w3.org/2000/svg">
<path d="M17 19C17.5523 19 18 18.5523 18 18C18 17.4477 17.5523 17 17 17C16.4477 17 16 17.4477 16 18C16 18.5523 16.4477 19 17 19Z" fill="black"/>
<path d="M6.99998 19C7.55226 19 7.99997 18.5523 7.99997 18C7.99997 17.4477 7.55226 17 6.99998 17C6.44771 17 6 17.4477 6 18C6 18.5523 6.44771 19 6.99998 19Z" fill="black"/>
<path d="M20.8746 19.353L20.1096 6.35302C20.0316 5.034 18.9356 4.00003 17.6136 4.00003H6.38561C5.06359 4.00003 3.96761 5.03405 3.88961 6.35302L3.12461 19.353C3.08359 20.048 3.32462 20.709 3.80162 21.215C4.27961 21.721 4.92461 22 5.62061 22H18.3786C19.0746 22 19.7196 21.721 20.1976 21.215C20.6746 20.709 20.9156 20.048 20.8746 19.353ZM5.83361 7.41699C5.87758 6.62302 6.53561 6 7.33159 6H16.6676C17.4636 6 18.1216 6.62302 18.1656 7.41699L18.4986 13.473C18.4996 14.805 14.4276 15 11.9996 15C9.57161 15 5.49958 14.805 5.49958 13.5L5.83361 7.41699ZM13.9996 17.5C13.9996 17.776 13.7756 18 13.4996 18H10.4996C10.2236 18 9.99958 17.776 9.99958 17.5C9.99958 17.224 10.2236 17 10.4996 17H13.4996C13.7756 17 13.9996 17.224 13.9996 17.5ZM6.99958 20C5.89656 20 4.99956 19.103 4.99956 18C4.99956 16.897 5.89656 16 6.99958 16C8.10259 16 8.99959 16.897 8.99959 18C8.99959 19.103 8.10259 20 6.99958 20ZM13.9996 20H9.99962C9.72362 20 9.49961 19.776 9.49961 19.5C9.49961 19.224 9.72362 19 9.99962 19H13.9996C14.2756 19 14.4996 19.224 14.4996 19.5C14.4996 19.776 14.2756 20 13.9996 20ZM16.9996 20C15.8966 20 14.9996 19.103 14.9996 18C14.9996 16.897 15.8966 16 16.9996 16C18.1026 16 18.9996 16.897 18.9996 18C18.9996 19.103 18.1026 20 16.9996 20Z" fill="black"/>
<path d="M17.8998 1.2C17.7498 0.999984 16.7588 0 11.9998 0C7.2408 0 6.24977 0.999984 6.09977 1.2C5.93379 1.42102 5.96679 1.749 6.18776 1.91498C6.28174 1.98497 6.39077 2.01998 6.49676 2.01998C6.64076 2.01998 6.78077 1.95497 6.87677 1.82798C6.88479 1.82002 7.75179 0.999984 11.9998 0.999984C16.1968 0.999984 17.0938 1.8 17.0998 1.8C17.2648 2.02102 17.5788 2.06498 17.7998 1.89998C18.0208 1.734 18.0658 1.42102 17.8998 1.2Z" fill="black"/>
<path d="M13.6967 0.539997C13.4447 0.431013 13.1487 0.548997 13.0407 0.803013L11.9997 3.23001L10.9596 0.803997C10.8507 0.548997 10.5537 0.431013 10.3036 0.540982C10.0496 0.649966 9.93162 0.943966 10.0406 1.197L11.5406 4.69701C11.6186 4.881 11.7996 5.00001 11.9996 5.00001C12.1996 5.00001 12.3806 4.881 12.4596 4.69603L13.9596 1.19601C14.0687 0.942982 13.9506 0.648982 13.6967 0.539997Z" fill="black"/>
<path d="M7.50003 21C7.22403 21 7.00002 21.224 7.00002 21.5H6.00003C6.00003 21.224 5.77602 21 5.50002 21C5.22402 21 5 21.224 5 21.5V22.5C5 23.327 5.67298 24 6.5 24C7.32702 24 8 23.327 8 22.5V21.5C8.00005 21.224 7.77603 21 7.50003 21Z" fill="black"/>
<path d="M18.5 21C18.224 21 18 21.224 18 21.5H17C17 21.224 16.776 21 16.5 21C16.224 21 16 21.224 16 21.5V22.5C16 23.327 16.673 24 17.5 24C18.327 24 19 23.327 19 22.5V21.5C19 21.224 18.776 21 18.5 21Z" fill="black"/>
<path d="M20 6.99998C19.724 6.99998 19.5 7.224 19.5 7.5C19.5 7.776 19.724 8.00002 20 8.00002V11C19.724 11 19.5 11.224 19.5 11.5C19.5 11.776 19.724 12 20 12H20.5C21.327 12 22 11.327 22 10.5V9C22 7.89699 21.103 6.99998 20 6.99998Z" fill="black"/>
<path d="M4.00002 11V8.00002C4.27602 8.00002 4.50003 7.776 4.50003 7.5C4.50003 7.224 4.27602 6.99998 4.00002 6.99998C2.897 6.99998 2 7.89699 2 9V10.5C2 11.327 2.67298 12 3.5 12H4.00002C4.27602 12 4.50003 11.776 4.50003 11.5C4.50003 11.224 4.27602 11 4.00002 11Z" fill="black"/>
</svg>
