<svg width="21" height="18" viewBox="0 0 21 18" fill="none" xmlns="http://www.w3.org/2000/svg">
<path d="M20.9692 2.5878C20.2185 2.92511 19.413 3.15386 18.5667 3.25599C19.4308 2.73126 20.0923 1.89896 20.4058 0.910266C19.5952 1.3962 18.7005 1.74905 17.7471 1.94033C16.9837 1.11449 15.8978 0.600098 14.6934 0.600098C12.3827 0.600098 10.5091 2.49994 10.5091 4.84177C10.5091 5.17391 10.5461 5.4983 10.6175 5.80851C7.14062 5.63142 4.05757 3.94226 1.99412 1.37552C1.63343 2.00106 1.42823 2.72994 1.42823 3.508C1.42823 4.98006 2.16746 6.27893 3.28905 7.03884C2.60334 7.01559 1.95843 6.82431 1.39384 6.50637V6.55936C1.39384 8.61428 2.8366 10.3293 4.74964 10.7196C4.39914 10.8153 4.02954 10.8683 3.64718 10.8683C3.377 10.8683 3.11571 10.8411 2.85953 10.7894C3.39226 12.476 4.937 13.7025 6.76722 13.7361C5.33593 14.8734 3.5312 15.5494 1.571 15.5494C1.23327 15.5494 0.900597 15.5287 0.573059 15.4912C2.42494 16.697 4.62349 17.4001 6.98645 17.4001C14.6833 17.4001 18.8905 10.9355 18.8905 5.32903L18.8764 4.77976C19.6985 4.18521 20.4096 3.43821 20.9692 2.5878Z" fill="#555555"/>
</svg>
