<svg width="20" height="15" viewBox="0 0 20 15" fill="none" xmlns="http://www.w3.org/2000/svg">
<path fill-rule="evenodd" clip-rule="evenodd" d="M17.1113 9.15618C17.7481 9.98026 18.4202 10.7556 18.9913 11.6628C19.2436 12.0659 19.4824 12.482 19.6652 12.9498C19.9241 13.6149 19.6896 14.3468 19.2397 14.3865L16.4431 14.3848C15.7218 14.4641 15.1464 14.0792 14.6626 13.4255C14.2754 12.9027 13.9168 12.3463 13.5445 11.8059C13.3919 11.585 13.2321 11.3772 13.0413 11.2129C12.6595 10.8844 12.3281 10.985 12.11 11.5128C11.8878 12.0496 11.8374 12.6441 11.8156 13.2423C11.7856 14.1152 11.5866 14.3447 10.9251 14.3847C9.51139 14.4731 8.16974 14.1896 6.92339 13.2443C5.82456 12.4109 4.97247 11.2344 4.23081 9.90251C2.7868 7.30902 1.68097 4.4592 0.687097 1.52954C0.463383 0.869485 0.62699 0.51517 1.1764 0.502629C2.08873 0.479136 3.00093 0.480809 3.91432 0.500957C4.28512 0.508147 4.53059 0.790061 4.67376 1.2544C5.16736 2.8632 5.77133 4.39382 6.52944 5.81259C6.73134 6.19031 6.9372 6.56804 7.23035 6.8339C7.55467 7.12827 7.80159 7.0307 7.95416 6.55182C8.05097 6.24817 8.09336 5.92111 8.11518 5.59589C8.18746 4.47701 8.19698 3.36006 8.07021 2.24511C7.99238 1.54927 7.6967 1.09881 7.1729 0.967135C6.9056 0.9 6.9454 0.768157 7.07482 0.565918C7.29961 0.217121 7.51102 0 7.93246 0H11.093C11.5906 0.130172 11.7011 0.426466 11.7692 1.09012L11.7719 5.74378C11.7665 6.0007 11.8687 6.76309 12.2178 6.93314C12.4972 7.0542 12.6814 6.7579 12.8491 6.52306C13.6058 5.45844 14.1459 4.20028 14.6284 2.89747C14.8425 2.32462 15.0266 1.72969 15.205 1.13526C15.3372 0.694167 15.5447 0.47713 15.9195 0.486744L18.9613 0.490339C19.0515 0.490339 19.1428 0.492095 19.2302 0.511909C19.7427 0.627701 19.8832 0.919982 19.7249 1.58347C19.4754 2.62442 18.9901 3.4919 18.5156 4.36339C18.0083 5.29382 17.4657 6.1924 16.9627 7.12835C16.5005 7.98304 16.5372 8.41385 17.1113 9.15618Z" fill="#555555"/>
</svg>
