<svg width="551" height="384" viewBox="0 0 551 384" fill="none" xmlns="http://www.w3.org/2000/svg">
<path d="M551 40.3662H0V383.48H551V40.3662Z" fill="#E6E6E6"/>
<path d="M137.864 106.466H36.9487V172.062H137.864V106.466Z" fill="white"/>
<path d="M263.26 106.466H162.344V172.062H263.26V106.466Z" fill="white"/>
<path d="M388.656 106.466H287.74V172.062H388.656V106.466Z" fill="white"/>
<path d="M514.051 106.466H413.135V172.062H514.051V106.466Z" fill="white"/>
<path d="M137.864 199.309H36.9487V264.904H137.864V199.309Z" fill="white"/>
<path d="M263.26 199.309H162.344V264.904H263.26V199.309Z" fill="white"/>
<path d="M388.656 199.309H287.74V264.904H388.656V199.309Z" fill="white"/>
<path d="M514.051 199.309H413.135V264.904H514.051V199.309Z" fill="white"/>
<path d="M137.864 292.15H36.9487V357.746H137.864V292.15Z" fill="white"/>
<path d="M263.26 292.15H162.344V357.746H263.26V292.15Z" fill="white"/>
<path d="M388.656 292.15H287.74V357.746H388.656V292.15Z" fill="white"/>
<path d="M514.051 292.15H413.135V357.746H514.051V292.15Z" fill="white"/>
<path d="M144.31 80.7327C152.67 80.7327 159.447 73.9555 159.447 65.5954C159.447 57.2352 152.67 50.458 144.31 50.458C135.95 50.458 129.172 57.2352 129.172 65.5954C129.172 73.9555 135.95 80.7327 144.31 80.7327Z" fill="white"/>
<path d="M394.581 80.7327C402.941 80.7327 409.718 73.9555 409.718 65.5954C409.718 57.2352 402.941 50.458 394.581 50.458C386.221 50.458 379.443 57.2352 379.443 65.5954C379.443 73.9555 386.221 80.7327 394.581 80.7327Z" fill="white"/>
<path d="M150.364 0H138.254V69.6319H150.364V0Z" fill="#E6E6E6"/>
<path d="M400.635 0H388.525V69.6319H400.635V0Z" fill="#E6E6E6"/>
<path d="M486.414 139.264C486.409 144.744 484.426 150.038 480.83 154.174C477.234 158.309 472.267 161.008 466.841 161.775C461.414 162.541 455.894 161.324 451.293 158.346C446.692 155.369 443.32 150.831 441.797 145.566C440.274 140.302 440.702 134.665 443.002 129.691C445.302 124.716 449.32 120.739 454.318 118.49C459.315 116.241 464.957 115.871 470.205 117.448C475.454 119.024 479.957 122.442 482.887 127.073C485.192 130.721 486.415 134.948 486.414 139.264Z" fill="#F51212"/>
<path d="M482.887 127.074L460.423 149.533C459.011 147.347 451.146 137.189 451.146 137.189C452.154 136.17 453.229 135.221 454.365 134.347L460.888 143.044L480.256 123.675C481.239 124.722 482.12 125.86 482.887 127.074Z" fill="white"/>
<path d="M235.623 232.106C235.618 237.587 233.635 242.881 230.039 247.016C226.443 251.152 221.476 253.851 216.05 254.618C210.623 255.384 205.102 254.167 200.502 251.189C195.901 248.211 192.529 243.673 191.006 238.409C189.483 233.145 189.911 227.508 192.211 222.533C194.511 217.559 198.529 213.582 203.527 211.333C208.524 209.084 214.165 208.714 219.414 210.29C224.662 211.867 229.166 215.285 232.096 219.916C234.401 223.564 235.624 227.791 235.623 232.106Z" fill="#F51212"/>
<path d="M232.096 219.916L209.632 242.376C208.22 240.19 200.354 230.032 200.354 230.032C201.363 229.013 202.438 228.063 203.574 227.189L210.097 235.886L229.465 216.518C230.448 217.565 231.328 218.702 232.096 219.916Z" fill="white"/>
<path d="M110.228 232.106C110.223 237.587 108.24 242.881 104.644 247.017C101.048 251.152 96.0806 253.851 90.6542 254.618C85.2278 255.384 79.707 254.167 75.1063 251.189C70.5055 248.212 67.1339 243.674 65.6109 238.409C64.0878 233.145 64.5157 227.508 66.8158 222.533C69.116 217.559 73.1339 213.582 78.1314 211.333C83.1288 209.084 88.7701 208.714 94.0186 210.29C99.2672 211.867 103.77 215.285 106.701 219.916C109.006 223.564 110.228 227.791 110.228 232.106Z" fill="#F51212"/>
<path d="M106.701 219.916L84.2366 242.376C82.8248 240.19 74.959 230.032 74.959 230.032C75.967 229.013 77.0427 228.063 78.1788 227.189L84.7013 235.886L104.07 216.518C105.052 217.565 105.933 218.702 106.701 219.916Z" fill="white"/>
</svg>
