<svg width="888" height="698" viewBox="0 0 888 698" fill="none" xmlns="http://www.w3.org/2000/svg">
<g clip-path="url(#clip0)">
<path d="M68.8085 195.695C95.0419 195.695 116.308 174.429 116.308 148.196C116.308 121.962 95.0419 100.696 68.8085 100.696C42.5751 100.696 21.3088 121.962 21.3088 148.196C21.3088 174.429 42.5751 195.695 68.8085 195.695Z" fill="#F51212"/>
<path d="M242.254 379.202L287.502 311.913L242.346 386.441L242.441 394.013C239.138 394.038 235.866 393.983 232.627 393.848L234.871 296.519L234.81 295.768L234.893 295.623L235.108 286.426L185.555 214.482L235.049 279.543L235.225 281.487L236.92 207.951L194.12 133.361L237.042 195.033L236.594 42.6853L236.595 42.1782L236.609 42.6769L239.45 162.747L278.457 113.974L239.578 173.091L240.429 238.867L276.324 174.672L240.561 248.537L241.035 285.112L293.235 195.689L241.194 297.871L242.254 379.202Z" fill="#7C7C7C"/>
<path d="M399.455 428.024L444.703 360.735L399.548 435.263L399.642 442.835C396.339 442.86 393.068 442.805 389.828 442.67L392.073 345.341L392.011 344.59L392.094 344.445L392.309 335.248L342.757 263.304L392.25 328.364L392.426 330.308L394.121 256.772L351.321 182.183L394.243 243.854L393.795 91.507L393.796 91L393.811 91.4987L396.652 211.569L435.659 162.796L396.779 221.913L397.631 287.689L433.525 223.494L397.763 297.359L398.237 333.934L450.437 244.511L398.395 346.693L399.455 428.024Z" fill="#E6E6E6"/>
<path d="M104.703 337.024L149.951 269.735L104.795 344.263L104.89 351.835C101.586 351.86 98.3152 351.805 95.0761 351.67L97.3203 254.341L97.2589 253.59L97.3417 253.445L97.5565 244.248L48.0042 172.304L97.498 237.364L97.6737 239.308L99.3688 165.772L56.569 91.1829L99.4906 152.854L99.0426 0.507065L99.0436 0L99.0582 0.49868L101.899 120.569L140.906 71.7963L102.027 130.913L102.878 196.689L138.773 132.494L103.01 206.359L103.484 242.934L155.684 153.511L103.643 255.693L104.703 337.024Z" fill="#7C7C7C"/>
<path d="M551.042 497.817L596.29 430.529L551.135 505.056L551.229 512.628C547.926 512.653 544.655 512.598 541.415 512.463L543.66 415.134L543.598 414.383L543.681 414.238L543.896 405.041L494.344 333.097L543.837 398.158L544.013 400.102L545.708 326.566L502.908 251.976L545.83 313.648L545.382 161.301L545.383 160.793L545.397 161.292L548.239 281.362L587.245 232.59L548.366 291.706L549.218 357.482L585.112 293.287L549.35 367.152L549.823 403.727L602.024 314.304L549.982 416.487L551.042 497.817Z" fill="#E6E6E6"/>
<path d="M888 697.209H0V317.306C0.90762 317.306 1.82466 317.306 2.73228 317.315C112.595 317.446 217.752 326.12 314.786 341.887C319.643 342.664 324.477 343.468 329.29 344.301C329.711 344.367 330.123 344.432 330.534 344.507C351.036 348.016 371.145 351.843 390.86 355.988C394.379 356.737 397.888 357.489 401.387 358.243C415.554 361.313 429.493 364.544 443.205 367.938C449.661 369.528 456.065 371.156 462.415 372.822C554.827 396.982 636.113 428.17 702.212 464.644C725.846 477.558 748.58 492.054 770.258 508.034C845.163 563.737 888 628.33 888 697.209Z" fill="#242226"/>
<path d="M684.593 697.208H0V404.327C103.145 404.327 200.965 414.087 288.689 431.566C297.269 433.269 305.75 435.053 314.131 436.918C317.818 437.723 321.489 438.553 325.145 439.407C336.523 442.037 347.708 444.803 358.7 447.707C374.055 451.75 388.998 456.041 403.53 460.583C412.129 463.278 420.57 466.047 428.851 468.892C429.768 469.21 430.685 469.528 431.592 469.846C438.096 472.101 444.496 474.413 450.793 476.78C507.526 498.03 555.978 523.229 593.818 551.367C651.562 594.307 684.593 644.106 684.593 697.208Z" fill="#E5E5E5"/>
<path d="M590.609 648.121L589.13 649.272C597.301 659.665 604.322 670.913 610.072 682.817L611.766 682.013C605.953 669.987 598.86 658.624 590.609 648.121ZM534.494 594.598C533.923 594.167 533.352 593.746 532.781 593.325L531.668 594.832C532.239 595.253 532.809 595.674 533.371 596.095C543.45 603.551 553.103 611.568 562.285 620.105L563.567 618.739C554.332 610.157 544.626 602.098 534.494 594.598ZM464.642 551.91L463.791 553.585C475.955 559.77 487.661 566.245 498.571 572.833L499.535 571.233C488.587 564.626 476.844 558.123 464.642 551.91ZM391.571 520.011L390.916 521.761C403.567 526.505 415.984 531.521 427.803 536.658L428.542 534.945C416.696 529.789 404.26 524.765 391.571 520.011ZM343.924 503.674C334.754 500.801 325.285 497.994 315.769 495.327L315.263 497.133C324.761 499.79 334.212 502.597 343.363 505.451C346.722 506.509 350.044 507.566 353.357 508.642L353.927 506.864C350.615 505.788 347.281 504.725 343.924 503.674ZM265.474 482.479C261.749 481.609 258.035 480.767 254.451 479.981C249.099 478.793 243.671 477.632 238.3 476.519L237.926 478.353C243.278 479.457 248.705 480.627 254.048 481.815C257.632 482.592 261.328 483.434 265.043 484.295C268.964 485.202 272.903 486.138 276.758 487.064L277.198 485.249C273.343 484.313 269.394 483.378 265.474 482.479ZM159.784 462.764L159.512 464.617C172.706 466.525 185.937 468.64 198.822 470.895L199.15 469.052C186.237 466.797 172.996 464.682 159.784 462.764ZM80.5937 453.538L80.4253 455.4C93.6657 456.588 106.99 457.954 120.034 459.47L120.25 457.608C107.187 456.092 93.8435 454.726 80.5937 453.538ZM1.01999 448.513L0.954468 450.384C14.2043 450.88 27.5851 451.554 40.7227 452.387L40.8349 450.515C27.688 449.692 14.2978 449.018 1.01999 448.513Z" fill="white"/>
<path d="M478.996 697.208H0V492.285C177.694 492.285 332.799 533.681 415.479 595.168C455.884 625.214 478.996 660.06 478.996 697.208Z" fill="#242226"/>
<path opacity="0.2" d="M888 697.208H0L415.479 595.168L593.818 551.367L770.258 508.033C845.163 563.737 888 628.33 888 697.208Z" fill="#7C7C7C"/>
<path opacity="0.2" d="M676.351 294.712L678.331 291.247L668.431 289.267L667.441 294.217L668.926 298.177L676.351 294.712Z" fill="black"/>
<path d="M670.658 292.484C677.767 292.484 683.529 286.722 683.529 279.613C683.529 272.505 677.767 266.742 670.658 266.742C663.55 266.742 657.787 272.505 657.787 279.613C657.787 286.722 663.55 292.484 670.658 292.484Z" fill="#FFB8B8"/>
<path d="M659.767 279.613L649.371 296.94L664.718 305.851L672.638 287.534L659.767 279.613Z" fill="#FFB8B8"/>
<path d="M659.336 299.445L645.97 294C645.97 294 625.673 297.465 623.693 303.901C621.713 310.336 621.713 362.316 621.713 362.316C621.713 362.316 616.763 375.187 623.693 375.682C623.693 375.682 621.713 378.653 623.693 379.148C625.673 379.643 645.97 379.148 653.891 381.623C661.812 384.098 677.653 386.078 677.653 383.603V379.148C677.653 379.148 681.118 375.682 679.138 369.742C677.158 363.801 674.683 350.93 674.683 350.93C674.683 350.93 689.534 318.257 688.049 314.297C686.564 310.336 668.432 298.09 668.432 298.09L659.336 299.445Z" fill="#242226"/>
<path d="M628.085 362.781L628.58 366.741L635.51 358.325H633.035L628.085 362.781Z" fill="#FFB8B8"/>
<path d="M658.777 299.91L644.421 296.445C644.421 296.445 641.451 293.969 641.451 290.999C641.451 288.029 645.906 283.573 648.876 280.603C649.135 280.338 649.445 280.128 649.787 279.986C650.129 279.844 650.496 279.773 650.866 279.777C653.807 279.752 657.371 283.608 657.371 283.608L653.416 290.207L653.238 290.499L658.777 299.91Z" fill="#C0C0C0"/>
<path d="M669.843 293.998L678.332 291.247C678.332 291.247 681.054 301.89 678.084 302.385C675.114 302.88 658.777 301.395 658.777 301.395L669.843 293.998Z" fill="#C0C0C0"/>
<path d="M624.124 377.137L617.689 413.77C617.689 413.77 615.213 418.225 616.203 420.206C617.194 422.186 617.689 422.186 616.203 423.176C614.718 424.166 612.738 423.176 613.233 425.651C613.53 427.119 613.696 428.61 613.728 430.106L599.867 477.631C599.867 477.631 590.956 481.591 597.392 484.066C603.827 486.541 610.263 488.522 611.748 486.046C613.233 483.571 611.748 480.601 611.748 480.601L634.52 426.146C634.52 426.146 637.985 421.196 637.985 418.225C637.985 415.255 649.371 393.968 649.371 393.968C649.371 393.968 649.866 415.255 650.361 416.74C650.857 418.225 649.371 421.196 649.371 423.176C649.371 425.156 648.381 425.156 649.371 426.146C650.361 427.136 650.361 438.522 650.361 438.522C650.361 438.522 644.421 482.581 647.886 483.076C651.352 483.571 661.252 482.581 661.252 480.601C661.296 480.085 661.176 479.568 660.909 479.124C660.643 478.68 660.243 478.33 659.767 478.126L666.203 440.502C665.933 439.001 666.105 437.453 666.698 436.047C667.688 434.067 667.688 434.067 667.688 433.077C667.688 432.087 667.193 431.592 667.688 431.096C668.011 430.669 668.185 430.147 668.183 429.611C668.183 429.611 667.193 426.641 667.688 426.146C668.183 425.651 679.074 388.523 675.609 384.067C672.143 379.612 624.124 377.137 624.124 377.137Z" fill="#7C7C7C"/>
<path d="M648.381 481.591L644.916 489.511C644.916 489.511 636.995 498.422 642.936 500.402C648.876 502.383 650.857 501.888 650.857 501.888C650.857 501.888 653.332 502.383 653.332 503.373C653.332 504.363 673.134 511.788 674.619 505.353C676.104 498.917 659.272 487.036 659.272 487.036V481.096L648.381 481.591Z" fill="#3C3C3F"/>
<path d="M610.196 485.258L610.946 493.87C610.946 493.87 615.6 504.847 609.338 504.823C603.076 504.799 601.359 503.696 601.359 503.696C601.359 503.696 598.855 503.373 598.538 504.311C598.222 505.25 577.085 505.951 577.736 499.378C578.388 492.806 598.136 486.933 598.136 486.933L600.036 481.305L610.196 485.258Z" fill="#3C3C3F"/>
<path d="M658.122 283.137C658.917 283.083 659.447 282.217 659.667 281.392C659.786 280.549 660.031 279.727 660.392 278.956C661.623 277.014 664.823 277.799 666.122 275.91C666.922 274.748 666.754 272.857 667.908 272.118C668.296 271.941 668.72 271.855 669.146 271.867C669.572 271.878 669.99 271.987 670.368 272.185C673.48 273.33 676.352 275.041 678.841 277.231L679.875 276.389L681.166 278.971C681.667 278.367 682.632 278.835 683.052 279.506C683.472 280.177 683.676 281.035 684.275 281.524C685.23 282.303 686.722 281.643 687.3 280.513C687.784 279.312 687.883 277.99 687.582 276.73C687.083 273.544 686.018 270.473 684.439 267.66L685.621 266.952L684.093 266.733L684.678 265.407L683.078 265.389L683.71 264.255C681.559 264.993 679.337 263.641 677.283 262.634C673.889 260.878 670.033 260.225 666.251 260.765C664.339 261.075 662.514 261.781 660.89 262.835C659.266 263.89 657.879 265.272 656.819 266.892C655.033 269.653 654.403 273.005 655.066 276.226C655.805 279.01 659.032 279.443 658.122 283.137Z" fill="#2F2E41"/>
<path d="M626.104 302.385C626.104 302.385 623.134 301.89 621.154 305.85C619.174 309.811 604.322 341.494 611.748 351.394C619.174 361.295 626.104 364.266 626.104 364.266L627.589 364.761L635.015 356.84L632.54 353.375C632.54 353.375 632.54 349.909 630.56 349.414C628.58 348.919 628.58 350.404 628.085 348.424C627.589 346.444 630.065 347.929 627.59 345.949C625.114 343.969 627.094 342.979 627.094 342.979L626.104 302.385Z" fill="#C0C0C0"/>
<path d="M678.579 368.474L678.084 372.434L671.153 364.018H673.629L678.579 368.474Z" fill="#FFB8B8"/>
<path d="M677.836 313.028C677.836 313.028 684.767 309.563 686.747 313.523C688.727 317.484 702.341 347.186 694.915 357.087C687.49 366.988 680.559 369.958 680.559 369.958L679.074 370.453L671.648 362.533L674.124 359.067C674.124 359.067 674.124 355.602 676.104 355.107C678.084 354.612 678.084 356.097 678.579 354.117C679.074 352.137 676.599 353.622 679.074 351.642C681.549 349.661 679.569 348.671 679.569 348.671L677.836 313.028Z" fill="#C0C0C0"/>
<path opacity="0.2" d="M657.371 283.608L653.416 290.207C650.931 289.346 650.723 283.578 650.866 279.776C653.807 279.752 657.371 283.608 657.371 283.608Z" fill="black"/>
</g>
<defs>
<clipPath id="clip0">
<rect width="888" height="697.208" fill="white"/>
</clipPath>
</defs>
</svg>
