<svg width="0" height="0" class="hidden">
  <symbol viewBox="0 0 10 19" fill="none" xmlns="http://www.w3.org/2000/svg" id="facebook">
    <path d="M9.434.604L7.132.6C4.546.6 2.874 2.34 2.874 5.03v2.042H.56c-.2 0-.362.165-.362.368v2.959c0 .203.162.367.362.367h2.314v7.467c0 .203.162.367.362.367h3.02c.2 0 .362-.164.362-.367v-7.467h2.707c.2 0 .362-.164.362-.367v-2.96a.37.37 0 0 0-.105-.259.36.36 0 0 0-.256-.108H6.618V5.341c0-.832.196-1.255 1.265-1.255h1.55c.2 0 .363-.165.363-.367V.97a.365.365 0 0 0-.362-.367z" fill="#555"/>
  </symbol>
  <symbol viewBox="0 0 29 25" fill="none" xmlns="http://www.w3.org/2000/svg" id="hammer">
    <path fill-rule="evenodd" clip-rule="evenodd" d="M7.292 24.534L3.9 18.66c-2.51-.598-3.03-2.107-2.393-4.146.633-2.985.171-6.248-.832-9.648l.673-.388 4.676 8.098 6.882-3.973c2.178-1.258 3.132-3.562 5.88-5.148C23.252.876 27.67.158 28.649 1.852c.978 1.694-1.853 5.163-6.32 7.74-2.747 1.587-5 1.134-7.398 2.519l-6.882 3.973 3.47 6.01-4.227 2.44z" fill="red"/>
  </symbol>
  <symbol viewBox="0 0 35 35" fill="none" xmlns="http://www.w3.org/2000/svg" id="hot">
    <path d="M9.61 31.837c-1.607-1.825-3.214-3.724-4.236-5.988-1.022-2.41-1.314-5.184-.803-7.813.51-2.629 1.68-5.111 3.359-7.229-.146 1.826.51 3.724 1.752 5.112-.73-3.505.438-7.303 2.775-10.077 2.337-2.775 5.55-4.6 8.909-5.842-1.68 1.752-1.9 4.527-1.242 6.864.657 2.337 2.045 4.381 3.286 6.499 1.241 2.117 2.41 4.308 2.483 6.718.657-1.242 1.387-2.483 1.825-3.87.439-1.388.657-2.848.293-4.236 1.314 1.607 2.044 3.213 2.41 5.258.364 2.044.291 4.162.072 6.207-.292 2.263-.876 4.6-2.117 6.499-1.46 2.263-3.798 3.87-6.353 4.746-4.528.803-8.982.146-12.414-2.848z" fill="#F51212"/>
    <path d="M15.159 34.539c5.987 2.337 11.902-4.747 8.616-10.223 0-.073-.073-.073-.073-.146.292 2.994-.438 5.184-1.825 6.426.73-1.753.219-3.797-.658-5.55-.876-1.68-2.117-3.213-3.067-4.82-.949-1.679-1.679-3.577-1.24-5.476-1.753 1.315-2.995 3.286-3.506 5.404-.511 2.117-.219 4.454.73 6.426-1.095-.804-1.898-2.118-1.971-3.505-1.168 1.387-1.899 3.213-1.826 5.038 0 2.848 2.264 5.404 4.82 6.426z" fill="#FFD15C"/>
  </symbol>
  <symbol viewBox="0 0 27 27" fill="none" xmlns="http://www.w3.org/2000/svg" id="like">
    <path d="M25.835 18.356c.554-.706.82-1.463.785-2.242-.034-.858-.418-1.53-.734-1.942.367-.915.509-2.355-.717-3.473-.898-.818-2.422-1.185-4.534-1.084-1.485.068-2.727.345-2.778.356h-.005c-.282.051-.582.113-.887.18-.022-.36.04-1.258.706-3.28.79-2.405.745-4.246-.147-5.476C16.587.102 15.091 0 14.65 0a1.42 1.42 0 0 0-1.09.497c-.626.728-.553 2.072-.474 2.693-.745 1.999-2.834 6.9-4.601 8.26a.572.572 0 0 0-.09.08c-.52.547-.87 1.14-1.107 1.66a2.33 2.33 0 0 0-1.118-.283H2.726a2.35 2.35 0 0 0-2.35 2.349v9.175a2.35 2.35 0 0 0 2.35 2.349H6.17c.502 0 .971-.158 1.355-.43l1.327.159c.203.028 3.817.485 7.526.412.672.05 1.304.079 1.892.079 1.01 0 1.891-.079 2.625-.237 1.728-.367 2.908-1.101 3.506-2.18a3.456 3.456 0 0 0 .384-2.162c1.124-1.016 1.322-2.14 1.282-2.93a3.814 3.814 0 0 0-.232-1.135zm-23.11 6.9a.825.825 0 0 1-.824-.825v-9.18c0-.458.373-.825.825-.825H6.17c.457 0 .824.373.824.824v9.175a.825.825 0 0 1-.824.825H2.726v.005zm21.665-7.56a.759.759 0 0 0-.102.92c0 .005.232.4.26.942.04.74-.316 1.395-1.061 1.954a.77.77 0 0 0-.26.87c0 .005.243.75-.152 1.456-.379.678-1.22 1.163-2.496 1.434-1.022.22-2.411.26-4.116.125h-.08c-3.63.079-7.3-.396-7.34-.401h-.005l-.57-.068c.034-.158.05-.328.05-.497v-9.18c0-.243-.039-.48-.107-.7.102-.38.384-1.22 1.05-1.937 2.536-2.01 5.014-8.792 5.122-9.085a.715.715 0 0 0 .034-.378c-.096-.633-.063-1.406.073-1.638.3.006 1.107.09 1.592.762.576.797.553 2.22-.068 4.105-.948 2.874-1.027 4.387-.276 5.054.372.333.87.35 1.23.22.345-.08.672-.147.983-.198l.073-.017c1.734-.378 4.84-.61 5.918.373.914.835.265 1.942.192 2.06a.755.755 0 0 0 .135.983c.006.006.599.565.627 1.316.022.502-.215 1.016-.706 1.524z" fill="#2AC154"/>
  </symbol>
  <symbol viewBox="0 0 473 387" fill="none" xmlns="http://www.w3.org/2000/svg" id="logoBlack">
    <path d="M82.036 247.254c0 60.002-9.511 72.148-45.413 72.293-12.556-11.677-21.416-22.858-26.578-33.538C3.348 272.098 0 254.087 0 231.977v-71.174l42.901-51.798 39.135 59.622v78.627zm-33.484 24.22v-78.627l-15.486-26.829v52.168c0 24.844 5.162 42.605 15.486 53.288z" fill="red"/>
    <path d="M179.328 86.645h-28.253v228.428h-37.041V85.9H86.618l9.836-56.268h82.874v57.013zm96.341 221.721c0 24.099-4.079 43.229-12.242 57.387-8.162 14.161-19.009 21.24-32.541 21.24-.977 0-9.279-2.11-24.904-6.334h.208v-63.35c5.443 6.708 8.651 10.558 9.626 11.552 3.489 3.479 7.117 5.219 10.884 5.219 7.533 0 12.277-5.219 14.231-15.652.836-4.719 1.255-15.526 1.255-32.418L217.7 315.819c-8.79-12.422-14.649-22.73-17.578-30.928-4.047-10.932-6.069-25.09-6.069-42.481V116.459h33.902v108.436c0 14.906.559 24.968 1.674 30.183 1.813 8.448 5.999 14.66 12.557 18.635V116.459l33.483.745v191.162zm98.755 5.963h-31.808c0-2.235.068-8.323.208-18.261.14-9.937.21-18.257.21-24.965 0-43.97-2.72-71.794-8.163-83.471-1.255-2.734-3.557-6.583-6.906-11.552v138.249h-34.11V185.768l40.598-71.548c16.324 19.379 27.066 37.266 32.228 53.662 5.163 16.396 7.743 41.735 7.743 76.018v70.429zm98.502-146.448l-41.645 80.117c5.86 10.187 13.602 18.26 23.229 24.22l-24.904 47.328c-12.417-8.697-21.415-19.13-26.996-31.302-6.278-13.663-9.416-31.677-9.416-54.033v-77.882l42.271-48.815 37.461 60.367zm-33.483 23.475l-14.231-28.319v53.658l14.231-25.339z" fill="#000"/>
    <path d="M186.662 348.685H0v38.308h186.662v-38.308zm286.338 0H286.338v38.308H473v-38.308z" fill="red"/>
    <path fill-rule="evenodd" clip-rule="evenodd" d="M258.487 107.896l-11.248-19.482c-8.326-1.981-10.052-6.985-7.937-13.748 2.1-9.9.568-20.721-2.757-31.996l2.23-1.287 15.506 26.858 22.824-13.178c7.224-4.17 10.389-11.814 19.501-17.075 14.81-8.55 29.467-10.931 32.71-5.314 3.244 5.618-6.146 17.12-20.957 25.672-9.111 5.26-16.583 3.758-24.538 8.35l-22.823 13.178 11.506 19.93-14.017 8.092z" fill="red"/>
  </symbol>
  <symbol viewBox="0 0 473 387" fill="none" xmlns="http://www.w3.org/2000/svg" id="logoWhite">
    <path d="M82.036 247.254c0 60.002-9.511 72.148-45.413 72.293-12.556-11.677-21.416-22.858-26.578-33.538C3.348 272.098 0 254.087 0 231.977v-71.174l42.901-51.798 39.135 59.622v78.627zm-33.484 24.22v-78.627l-15.486-26.829v52.168c0 24.844 5.162 42.605 15.486 53.288z" fill="red"/>
    <path d="M179.328 86.645h-28.253v228.428h-37.041V85.9H86.618l9.836-56.268h82.874v57.013zm96.341 221.721c0 24.099-4.079 43.229-12.242 57.387-8.162 14.161-19.009 21.24-32.541 21.24-.977 0-9.279-2.11-24.904-6.334h.208v-63.35c5.443 6.708 8.651 10.558 9.626 11.552 3.489 3.479 7.117 5.219 10.884 5.219 7.533 0 12.277-5.219 14.231-15.652.836-4.719 1.255-15.526 1.255-32.418L217.7 315.819c-8.79-12.422-14.649-22.73-17.578-30.928-4.047-10.932-6.069-25.09-6.069-42.481V116.459h33.902v108.436c0 14.906.559 24.968 1.674 30.183 1.813 8.448 5.999 14.66 12.557 18.635V116.459l33.483.745v191.162zm98.755 5.963h-31.808c0-2.235.068-8.323.208-18.261.14-9.937.21-18.257.21-24.965 0-43.97-2.72-71.794-8.163-83.471-1.255-2.734-3.557-6.583-6.906-11.552v138.249h-34.11V185.768l40.598-71.548c16.324 19.379 27.066 37.266 32.228 53.662 5.163 16.396 7.743 41.735 7.743 76.018v70.429zm98.502-146.448l-41.645 80.117c5.86 10.187 13.602 18.26 23.229 24.22l-24.904 47.328c-12.417-8.697-21.415-19.13-26.996-31.302-6.278-13.663-9.416-31.677-9.416-54.033v-77.882l42.271-48.815 37.461 60.367zm-33.483 23.475l-14.231-28.319v53.658l14.231-25.339z" fill="#fff"/>
    <path d="M186.662 348.685H0v38.308h186.662v-38.308zm286.338 0H286.338v38.308H473v-38.308z" fill="red"/>
    <path fill-rule="evenodd" clip-rule="evenodd" d="M258.487 107.896l-11.248-19.482c-8.326-1.981-10.052-6.985-7.937-13.748 2.1-9.9.568-20.721-2.757-31.996l2.23-1.287 15.506 26.858 22.824-13.178c7.224-4.17 10.389-11.814 19.501-17.075 14.81-8.55 29.467-10.931 32.71-5.314 3.244 5.618-6.146 17.12-20.957 25.672-9.111 5.26-16.583 3.758-24.538 8.35l-22.823 13.178 11.506 19.93-14.017 8.092z" fill="red"/>
  </symbol>
  <symbol viewBox="0 0 35 26" fill="none" xmlns="http://www.w3.org/2000/svg" id="mail">
    <path d="M29.994 0H4.178A4.181 4.181 0 0 0 0 4.178v17.644A4.181 4.181 0 0 0 4.178 26h25.809a4.181 4.181 0 0 0 4.178-4.178V4.185A4.177 4.177 0 0 0 29.994 0zm2.27 21.822a2.272 2.272 0 0 1-2.27 2.27H4.178a2.272 2.272 0 0 1-2.27-2.27V4.185a2.272 2.272 0 0 1 2.27-2.27h25.809a2.272 2.272 0 0 1 2.27 2.27v17.637h.006z" fill="#7C7C7C"/>
    <path d="M21.547 12.78l8.355-7.492a.959.959 0 0 0 .071-1.35.959.959 0 0 0-1.35-.071L17.1 14.209 14.852 12.2c-.007-.007-.014-.014-.014-.021a1.416 1.416 0 0 0-.155-.134L5.535 3.86a.953.953 0 0 0-1.35.077.953.953 0 0 0 .078 1.35l8.454 7.558-8.419 7.882a.958.958 0 0 0 1.308 1.4l8.546-7.996 2.32 2.071a.954.954 0 0 0 1.272-.007l2.382-2.135 8.497 8.073a.953.953 0 0 0 1.315-1.386l-8.391-7.966z" fill="#7C7C7C"/>
  </symbol>
  <symbol viewBox="0 0 23 32" fill="none" xmlns="http://www.w3.org/2000/svg" id="mapMarker">
    <path d="M11.547 1C5.73 1 1 5.731 1 11.547c0 1.965.544 3.882 1.574 5.546l8.373 13.491c.16.259.442.416.746.416h.007a.879.879 0 0 0 .747-.427l8.16-13.623a10.534 10.534 0 0 0 1.487-5.403C22.094 5.73 17.362 1 11.547 1zm7.55 15.048L11.68 28.433 4.068 16.167a8.778 8.778 0 0 1-1.322-4.62c0-4.846 3.955-8.8 8.8-8.8 4.847 0 8.796 3.954 8.796 8.8a8.78 8.78 0 0 1-1.244 4.5z" fill="#7C7C7C" stroke="#7C7C7C" stroke-width=".5"/>
    <circle cx="11.547" cy="12" r="4.15" stroke="#7C7C7C" stroke-width="1.7"/>
  </symbol>
  <symbol viewBox="0 0 31 31" fill="none" xmlns="http://www.w3.org/2000/svg" id="phone">
    <path d="M24.71 18.584c-.615-.64-1.356-.981-2.141-.981-.779 0-1.526.335-2.165.975l-2.001 1.994c-.165-.088-.33-.17-.488-.253a8.106 8.106 0 0 1-.627-.336c-1.874-1.19-3.577-2.741-5.21-4.748-.792-1-1.324-1.843-1.71-2.698.519-.475 1-.969 1.469-1.443.177-.178.354-.361.532-.539 1.33-1.33 1.33-3.051 0-4.381L10.64 4.445a26.452 26.452 0 0 1-.589-.601c-.38-.393-.779-.798-1.19-1.178-.614-.608-1.349-.93-2.121-.93-.773 0-1.52.322-2.153.93l-.013.013L2.422 4.85a4.632 4.632 0 0 0-1.374 2.944c-.152 1.849.392 3.57.81 4.698 1.026 2.767 2.558 5.331 4.844 8.08 2.773 3.31 6.11 5.926 9.921 7.768 1.457.69 3.4 1.507 5.572 1.646.133.007.273.013.4.013 1.462 0 2.69-.526 3.653-1.57.006-.013.019-.02.025-.032.33-.399.71-.76 1.108-1.146.272-.26.551-.532.823-.817.627-.652.956-1.412.956-2.19 0-.786-.335-1.539-.975-2.172l-3.476-3.489zm2.266 6.667c-.006 0-.006.007 0 0-.247.266-.5.507-.773.773-.411.392-.83.804-1.222 1.266-.64.684-1.393 1.007-2.38 1.007-.095 0-.197 0-.292-.006-1.88-.12-3.628-.855-4.938-1.482-3.584-1.735-6.73-4.198-9.346-7.32-2.159-2.602-3.603-5.008-4.559-7.591-.589-1.577-.804-2.805-.709-3.964.063-.74.348-1.355.874-1.88l2.159-2.16c.31-.29.64-.45.962-.45.4 0 .722.242.925.444l.019.02c.386.36.753.734 1.14 1.132.196.203.398.406.601.615l1.729 1.728c.67.671.67 1.292 0 1.963-.184.184-.361.367-.545.545a33.08 33.08 0 0 1-1.59 1.544c-.012.013-.025.02-.03.032-.545.545-.444 1.077-.33 1.438l.019.056c.45 1.09 1.083 2.115 2.045 3.337l.006.007c1.748 2.152 3.59 3.83 5.623 5.116.26.164.526.297.779.424.228.114.443.222.627.335.025.013.05.032.076.045.215.107.417.158.626.158.526 0 .855-.33.963-.437l2.165-2.165c.215-.216.557-.475.956-.475.393 0 .716.247.912.462l.013.013 3.488 3.489c.653.645.653 1.31.007 1.981z" fill="#7C7C7C" stroke="#7C7C7C" stroke-width=".2"/>
    <path d="M17.212 7.136a8.03 8.03 0 0 1 4.37 2.267 8.071 8.071 0 0 1 2.266 4.369.85.85 0 0 0 .842.709.856.856 0 0 0 .848-1 9.766 9.766 0 0 0-2.741-5.287 9.766 9.766 0 0 0-5.287-2.742.86.86 0 0 0-.988.696.846.846 0 0 0 .69.988zm13.752 6.098a16.066 16.066 0 0 0-4.514-8.706A16.066 16.066 0 0 0 17.744.013a.852.852 0 0 0-.982.697.859.859 0 0 0 .703.987c2.95.5 5.642 1.9 7.782 4.034a14.344 14.344 0 0 1 4.033 7.781c.07.418.43.71.842.71.051 0 .095-.007.146-.013a.839.839 0 0 0 .696-.975z" fill="#7C7C7C"/>
  </symbol>
  <symbol viewBox="0 0 22 22" fill="none" xmlns="http://www.w3.org/2000/svg" id="search">
    <path fill-rule="evenodd" clip-rule="evenodd" d="M14 8.036c0 3.342-2.695 6.036-6 6.036s-6-2.694-6-6.036C2 4.694 4.695 2 8 2s6 2.694 6 6.036zm-1.558 6.685A7.938 7.938 0 0 1 8 16.072c-4.418 0-8-3.598-8-8.036S3.582 0 8 0s8 3.598 8 8.036a8.027 8.027 0 0 1-2.046 5.368l7.18 7.182L19.72 22l-7.278-7.28z" fill="#7C7C7C"/>
  </symbol>
  <symbol viewBox="0 0 32 27" fill="none" xmlns="http://www.w3.org/2000/svg" id="share">
    <path d="M30.102 6.912l-.594-.517a163.58 163.58 0 0 0-1.79-1.542 86.647 86.647 0 0 1-1.88-1.653 76.666 76.666 0 0 0-2.185-1.91c-.1-.082-.202-.176-.309-.273-.533-.488-1.307-1.11-2.155-1.005-1.149.138-2.042 1.568-2.042 2.764v3.155l-.1-.001c-2.511 0-14.994.777-14.994 16.129 0 .44.283.815.637.889.04.009.094.012.134.012.309 0 .597-.24.702-.607.092-.325 2.293-7.96 12.182-7.96.496 0 1.07.02 1.439.06v2.942c0 .98.59 1.962 1.362 2.5.268.186.602.281.9.281.732 0 1.341-.558 1.812-1.006.126-.12.257-.236.37-.325.438-.346.877-.72 1.295-1.08.211-.183.426-.366.636-.543 1.158-.974 2.32-1.997 3.442-2.986l.32-.281c.146-.128.294-.254.442-.38.124-.105.247-.21.346-.297.859-.689 1.928-1.545 1.928-3.193.001-1.588-.884-2.326-1.898-3.173zm-.858 4.873c-.117.103-.237.204-.356.306-.155.131-.31.263-.462.397l-.32.282c-1.116.984-2.269 2-3.414 2.963-.216.182-.432.369-.648.555-.405.35-.825.712-1.237 1.037a6.63 6.63 0 0 0-.466.419c-.278.264-.658.626-.886.626-.028 0-.16-.006-.218-.047-.3-.208-.617-.608-.617-.929v-3.78c0-.47-.2-.86-.58-.9a21.263 21.263 0 0 0-2.283-.126c-6.522 0-10.057 3.102-11.892 5.702.682-3.784 2.48-6.602 5.35-8.406 3.084-1.94 6.567-2.148 7.918-2.148.391 0 .623-.07.636-.068.015.001.035-.084.05-.084h.249c.406 0 .552-.233.552-.731V2.776c0-.417.423-.932.713-.967.297-.025.733.333 1.084.655.126.115.27.226.387.323a76.646 76.646 0 0 1 2.154 1.872c.621.557 1.27 1.134 1.919 1.682.594.502 1.187 1.016 1.775 1.528l.609.527c1.077.899 1.266 1.152 1.266 1.69 0 .573-.388.981-1.283 1.7z" fill="#99999A"/>
    <path d="M22.712 27c1.851 0 3.063-1.56 3.063-3.857V20.85c0-.498-.33-.903-.736-.903-.407 0-.737.405-.737.904v2.293c0 1.308-.545 2.05-1.59 2.05H3.604c-1.092 0-2.13-.804-2.13-2.05V8.194c0-1.237 1.057-2.417 2.13-2.417h7.259c.406 0 .736-.404.736-.903 0-.498-.33-.903-.736-.903H3.604C1.718 3.971 0 5.961 0 8.195v14.948C0 25.366 1.718 27 3.604 27h19.108z" fill="#99999A"/>
  </symbol>
  <symbol viewBox="0 0 29 29" fill="none" xmlns="http://www.w3.org/2000/svg" id="smallCalendar">
    <path d="M26.584 2.719h-3.928V.906a.905.905 0 1 0-1.812 0V2.72h-5.438V.906a.906.906 0 1 0-1.812 0V2.72H8.156V.906a.906.906 0 1 0-1.812 0V2.72H2.417A2.416 2.416 0 0 0 0 5.135v21.448A2.417 2.417 0 0 0 2.417 29h24.167A2.416 2.416 0 0 0 29 26.583V5.135a2.415 2.415 0 0 0-2.416-2.416zm.604 23.864a.605.605 0 0 1-.604.605H2.417a.605.605 0 0 1-.604-.605V5.135c0-.333.27-.604.604-.604h3.927v1.813a.906.906 0 1 0 1.812 0V4.53h5.438v1.813a.906.906 0 1 0 1.812 0V4.53h5.438v1.813a.905.905 0 1 0 1.812 0V4.53h3.928c.332 0 .604.271.604.604v21.448z" fill="#242226"/>
    <path d="M9.969 10.875H6.344v2.719h3.625v-2.719zm0 4.531H6.344v2.719h3.625v-2.719zm0 4.532H6.344v2.718h3.625v-2.718zm6.344 0h-3.625v2.718h3.624v-2.718zm0-4.532h-3.625v2.719h3.624v-2.719zm0-4.531h-3.625v2.719h3.624v-2.719zm6.343 9.063h-3.625v2.718h3.625v-2.718zm0-4.532h-3.625v2.719h3.625v-2.719zm0-4.531h-3.625v2.719h3.625v-2.719z" fill="#242226"/>
  </symbol>
  <symbol viewBox="0 0 28 28" fill="none" xmlns="http://www.w3.org/2000/svg" id="star">
    <path d="M15.713 2.725c-.548-1.717-2.977-1.717-3.525 0l-2.152 6.738h-7c-1.785 0-2.536 2.277-1.1 3.338l5.69 4.207-2.166 6.786c-.546 1.71 1.419 3.117 2.862 2.05l5.628-4.16 5.628 4.16c1.444 1.067 3.408-.34 2.862-2.05l-2.166-6.786 5.691-4.207c1.435-1.061.685-3.338-1.1-3.338h-7l-2.152-6.738z" fill="#fff" stroke="#99999A" stroke-width="1.7"/>
  </symbol>
  <symbol viewBox="0 0 25 24" fill="none" xmlns="http://www.w3.org/2000/svg" id="time">
    <path fill-rule="evenodd" clip-rule="evenodd" d="M4.828.965a.546.546 0 0 0-.93.336L3.51 5.546a.546.546 0 0 0 .593.593l4.245-.385a.545.545 0 0 0 .336-.93L7.551 3.689c3.792-2.385 8.87-1.935 12.17 1.364 3.83 3.83 3.83 10.063 0 13.893s-10.063 3.83-13.893 0a9.863 9.863 0 0 1-2.544-9.49 1.091 1.091 0 1 0-2.11-.563 12.052 12.052 0 0 0 3.11 11.596c4.682 4.681 12.3 4.681 16.98 0 4.682-4.681 4.682-12.299 0-16.98-4.153-4.154-10.618-4.62-15.292-1.4L4.828.965zm6.69 3.97a1.091 1.091 0 1 1 2.184 0v6.625c.45.315.75.819.801 1.396l3.8 2.194a1.09 1.09 0 1 1-1.09 1.89l-3.797-2.191a1.886 1.886 0 0 1-.806.184 1.907 1.907 0 1 1-1.092-3.475V4.937zm.273 8.188a.82.82 0 0 0 1.637 0 .82.82 0 0 0-.818-.819.82.82 0 0 0-.819.819z" fill="#000"/>
  </symbol>
  <symbol viewBox="0 0 16 15" fill="none" xmlns="http://www.w3.org/2000/svg" id="user">
    <path d="M1 15C1 4.91 15 4.636 15 15M10.77 3.818c0 1.569-1.253 2.818-2.77 2.818-1.517 0-2.77-1.25-2.77-2.818S6.484 1 8 1c1.517 0 2.77 1.25 2.77 2.818z" stroke="#F51212" stroke-width="2"/>
  </symbol>
  <symbol viewBox="0 0 28 20" fill="none" xmlns="http://www.w3.org/2000/svg" id="views">
    <path d="M14 19c-5.362 0-10.174-3.52-12.89-9C3.826 4.52 8.638 1 14 1c5.362 0 10.174 3.52 12.89 9-2.716 5.48-7.528 9-12.89 9z" stroke="#99999A" stroke-width="2"/>
    <circle cx="14" cy="10" r="4" stroke="#99999A" stroke-width="2"/>
  </symbol>
  <symbol viewBox="0 0 29 54" fill="none" xmlns="http://www.w3.org/2000/svg" id="bigRightArrow">
    <path d="M1 1l26 26L1 53" stroke="#F7F7F7" stroke-width="2"/>
  </symbol>
  <symbol viewBox="0 0 29 54" fill="none" xmlns="http://www.w3.org/2000/svg" id="bigLeftArrow">
    <path d="M28 1L2 27l26 26" stroke="#F7F7F7" stroke-width="2"/>
  </symbol>
  <symbol viewBox="0 0 30 30" fill="none" xmlns="http://www.w3.org/2000/svg" id="clocks">
    <circle cx="15" cy="15" r="13" stroke="#7C7C7C" stroke-width="2.2"/>
    <path d="M23.211 15.34h-6.74V7.235a1.235 1.235 0 0 0-2.471 0v9.34c0 .682.553 1.235 1.235 1.235h7.976a1.235 1.235 0 0 0 0-2.47z" fill="#7C7C7C"/>
  </symbol>
  <symbol viewBox="0 0 31 29" fill="none" xmlns="http://www.w3.org/2000/svg" id="comments">
    <path d="M18.47 1C12.322 1 7.304 4.894 6.98 9.784 3.39 10.954 1 13.777 1 16.916a7.116 7.116 0 0 0 3.155 5.715v4.93a.432.432 0 1 0 .73.322L8.6 24.44c.64.106 1.286.159 1.934.158 4.052 0 7.617-2.038 8.972-5.094.451-.035.903-.082 1.354-.158l4.562 4.221a.43.43 0 0 0 .613-.023.442.442 0 0 0 .116-.299v-6.054c2.448-1.757 3.85-4.269 3.85-6.916C29.993 5.164 24.824 1 18.47 1zm-7.936 22.72c-.668 0-1.335-.06-1.991-.182a.43.43 0 0 0-.37.106L5.028 26.57v-4.175a.44.44 0 0 0-.191-.363c-1.899-1.294-2.97-3.18-2.97-5.123 0-2.67 2.02-5.1 5.083-6.201.03.395.093.787.19 1.17a8.682 8.682 0 0 0 2.785 4.568c.081.076 3.022 3.004 8.607 3.074-1.348 2.547-4.463 4.199-8 4.199zm14.934-7.12a.44.44 0 0 0-.191.362v5.27l-3.994-3.694a.432.432 0 0 0-.295-.117h-.081c-.764.143-1.539.216-2.316.216-4.202 0-6.743-1.651-7.988-2.711a8.755 8.755 0 0 1-2.65-4.204 6.667 6.667 0 0 1-.175-1.47c.035-4.602 4.817-8.38 10.692-8.38s10.656 3.766 10.656 8.398c0 2.424-1.331 4.73-3.658 6.33z" fill="#000" stroke="#99999A"/>
  </symbol>
  <symbol viewBox="0 0 27 27" fill="none" xmlns="http://www.w3.org/2000/svg" id="dislike">
    <path d="M1.165 8.644C.61 9.35.345 10.107.38 10.886c.034.858.418 1.53.734 1.942-.367.915-.508 2.355.717 3.473.897.818 2.422 1.185 4.534 1.084 1.485-.068 2.727-.345 2.778-.356h.005c.283-.051.582-.113.887-.18.022.36-.04 1.258-.706 3.28-.79 2.405-.745 4.245.147 5.476C10.413 26.898 11.909 27 12.35 27a1.42 1.42 0 0 0 1.09-.497c.626-.728.553-2.072.474-2.693.745-1.999 2.834-6.9 4.601-8.26a.572.572 0 0 0 .09-.08c.52-.547.87-1.14 1.107-1.66.333.181.712.283 1.118.283h3.444a2.35 2.35 0 0 0 2.35-2.349V2.569A2.35 2.35 0 0 0 24.273.22H20.83c-.502 0-.971.158-1.355.43L18.148.49c-.203-.027-3.817-.484-7.526-.41A25.273 25.273 0 0 0 8.73 0C7.72 0 6.84.079 6.105.237c-1.728.367-2.908 1.101-3.506 2.18a3.456 3.456 0 0 0-.384 2.162C1.09 5.595.893 6.719.933 7.51a3.8 3.8 0 0 0 .232 1.135zm23.11-6.9c.457 0 .824.373.824.825v9.18a.825.825 0 0 1-.825.825H20.83a.825.825 0 0 1-.824-.824V2.575c0-.458.372-.825.824-.825h3.444v-.005zM2.61 9.305a.759.759 0 0 0 .102-.92c0-.005-.232-.4-.26-.942-.04-.74.316-1.395 1.061-1.954a.77.77 0 0 0 .26-.87c0-.005-.243-.75.152-1.456.379-.678 1.22-1.163 2.496-1.434 1.022-.22 2.411-.26 4.116-.124h.08c3.63-.08 7.3.395 7.34.4h.005l.57.068c-.034.158-.05.328-.05.497v9.18c0 .243.039.48.107.7-.102.38-.384 1.22-1.05 1.937-2.536 2.01-5.014 8.791-5.122 9.085a.715.715 0 0 0-.034.378c.096.633.063 1.406-.073 1.638-.3-.006-1.107-.09-1.592-.762-.576-.797-.553-2.22.068-4.105.948-2.874 1.027-4.387.276-5.054-.372-.333-.87-.35-1.23-.22-.345.08-.673.147-.983.198l-.073.017c-1.734.378-4.84.61-5.918-.373-.914-.835-.265-1.942-.192-2.06a.755.755 0 0 0-.135-.983c-.006-.006-.599-.565-.627-1.316-.022-.502.215-1.016.706-1.524z" fill="#242226"/>
  </symbol>
  <symbol viewBox="0 0 32 6" fill="none" xmlns="http://www.w3.org/2000/svg" id="dotsMenu">
    <circle cx="3" cy="3" r="3" fill="#C4C4C4"/>
    <circle cx="16" cy="3" r="3" fill="#C4C4C4"/>
    <circle cx="29" cy="3" r="3" fill="#C4C4C4"/>
  </symbol>
  <symbol viewBox="0 0 30 30" fill="none" xmlns="http://www.w3.org/2000/svg" id="extLink">
    <g clip-path="url(#clip0)" fill="#7C7C7C">
      <path d="M23.036 17.142h-1.072a.519.519 0 0 0-.535.536v5.357a2.58 2.58 0 0 1-.787 1.892 2.58 2.58 0 0 1-1.892.787H4.821a2.58 2.58 0 0 1-1.892-.787 2.58 2.58 0 0 1-.786-1.892V9.107c0-.737.262-1.367.786-1.892a2.58 2.58 0 0 1 1.892-.787h11.786c.156 0 .285-.05.385-.15.1-.1.15-.229.15-.385V4.82a.521.521 0 0 0-.15-.385.522.522 0 0 0-.385-.15H4.82c-1.328 0-2.463.471-3.407 1.414C.472 6.643 0 7.78 0 9.107v13.928c0 1.328.472 2.464 1.414 3.407.944.943 2.08 1.415 3.407 1.415h13.93c1.327 0 2.463-.472 3.406-1.415.943-.943 1.415-2.079 1.415-3.407V17.68a.52.52 0 0 0-.151-.386.52.52 0 0 0-.385-.15z"/>
      <path d="M29 2a1 1 0 0 0-1-1h-9a1 1 0 1 0 0 2h8v8a1 1 0 1 0 2 0V2zM16.707 14.707l12-12-1.414-1.414-12 12 1.414 1.414z"/>
    </g>
    <defs>
      <clipPath id="clip0">
        <path fill="#fff" d="M0 0h30v30H0z"/>
      </clipPath>
    </defs>
  </symbol>
  <symbol viewBox="0 0 20 15" fill="none" xmlns="http://www.w3.org/2000/svg" id="vk">
    <path fill-rule="evenodd" clip-rule="evenodd" d="M17.111 9.156c.637.824 1.31 1.6 1.88 2.507.253.403.491.819.674 1.287.26.665.025 1.397-.425 1.437l-2.797-.002c-.721.08-1.297-.306-1.78-.96-.388-.522-.746-1.079-1.119-1.62a3.078 3.078 0 0 0-.503-.592c-.382-.329-.713-.228-.931.3-.222.537-.273 1.131-.294 1.73-.03.872-.23 1.102-.89 1.142-1.415.088-2.756-.195-4.003-1.14-1.098-.834-1.95-2.01-2.692-3.342C2.787 7.309 1.68 4.459.687 1.53.463.87.627.515 1.177.503A57.264 57.264 0 0 1 3.913.5c.371.007.617.29.76.753.493 1.61 1.097 3.14 1.855 4.559.202.377.408.755.701 1.02.325.295.572.198.724-.281a4 4 0 0 0 .161-.956c.072-1.119.082-2.236-.045-3.35-.078-.697-.373-1.147-.897-1.279-.266-.066-.227-.198-.097-.4C7.3.217 7.51 0 7.932 0h3.161c.498.13.608.426.676 1.09l.003 4.654c-.005.257.097 1.02.446 1.19.28.12.463-.176.631-.41.757-1.066 1.297-2.324 1.78-3.627a28.35 28.35 0 0 0 .576-1.762c.132-.44.34-.658.714-.648l3.042.003c.09 0 .182.002.27.022.512.116.652.408.494 1.071-.25 1.041-.735 1.909-1.21 2.78-.507.93-1.05 1.83-1.552 2.765-.463.855-.426 1.286.148 2.028z" fill="#555"/>
  </symbol>
  <symbol viewBox="0 0 21 20" fill="none" xmlns="http://www.w3.org/2000/svg" id="instagram">
    <path d="M14.162.4H6.963a6 6 0 0 0-5.998 6v7.2a6 6 0 0 0 5.998 6h7.2a6 6 0 0 0 5.998-6V6.4a6 6 0 0 0-5.999-6zm4.2 13.2c0 2.316-1.884 4.2-4.2 4.2H6.963a4.204 4.204 0 0 1-4.199-4.2V6.4c0-2.316 1.884-4.2 4.2-4.2h7.198c2.316 0 4.2 1.884 4.2 4.2v7.2z" fill="#555"/>
    <path d="M10.563 5.2a4.8 4.8 0 1 0 .001 9.6 4.8 4.8 0 0 0-.001-9.6zm0 7.8c-1.654 0-3-1.347-3-3 0-1.655 1.346-3 3-3 1.653 0 3 1.345 3 3 0 1.653-1.347 3-3 3zm5.159-7.52a.64.64 0 1 0 0-1.28.64.64 0 0 0 0 1.28z" fill="#555"/>
  </symbol>
  <symbol viewBox="0 0 21 18" fill="none" xmlns="http://www.w3.org/2000/svg" id="twitter">
    <path d="M20.97 2.588a8.266 8.266 0 0 1-2.403.668A4.25 4.25 0 0 0 20.406.91a8.365 8.365 0 0 1-2.659 1.03A4.145 4.145 0 0 0 14.693.6c-2.31 0-4.184 1.9-4.184 4.242 0 .332.037.656.108.967-3.476-.178-6.56-1.867-8.623-4.433a4.256 4.256 0 0 0-.566 2.132c0 1.472.74 2.77 1.861 3.53a4.14 4.14 0 0 1-1.895-.532v.053c0 2.055 1.443 3.77 3.356 4.16a4.18 4.18 0 0 1-1.103.15c-.27 0-.531-.028-.787-.08.532 1.687 2.077 2.914 3.907 2.947a8.321 8.321 0 0 1-5.196 1.813c-.338 0-.67-.02-.998-.058a11.709 11.709 0 0 0 6.413 1.91c7.697 0 11.904-6.466 11.904-12.072l-.014-.55a8.421 8.421 0 0 0 2.093-2.191z" fill="#555"/>
  </symbol>
  <symbol viewBox="0 0 13 20" fill="none" xmlns="http://www.w3.org/2000/svg" id="ok">
    <path d="M6.78 10.79a5.197 5.197 0 0 0 5.198-5.195A5.197 5.197 0 0 0 6.78.4a5.197 5.197 0 0 0-5.198 5.195A5.203 5.203 0 0 0 6.78 10.79zm0-7.992a2.798 2.798 0 1 1-2.8 2.797 2.798 2.798 0 0 1 2.8-2.797z" fill="#555"/>
    <path d="M11.872 13.252a2.012 2.012 0 0 0 .906-1.678 1.45 1.45 0 0 0-.813-1.323 1.52 1.52 0 0 0-1.6.15 6.09 6.09 0 0 1-7.17 0 1.529 1.529 0 0 0-1.6-.15 1.451 1.451 0 0 0-.814 1.322c.001.676.341 1.306.906 1.678a9.238 9.238 0 0 0 2.344 1.12 8.3 8.3 0 0 0 .435.12L2.05 16.855a1.598 1.598 0 0 0-.034 2.26 1.6 1.6 0 0 0 2.301-.005l2.464-2.548 2.468 2.553a1.6 1.6 0 0 0 2.262.036 1.598 1.598 0 0 0-.003-2.3l-2.413-2.36c.15-.037.295-.078.437-.121a9.205 9.205 0 0 0 2.341-1.117z" fill="#555"/>
  </symbol>
  <symbol viewBox="0 0 16 16" fill="none" xmlns="http://www.w3.org/2000/svg" id="close">
    <path fill-rule="evenodd" clip-rule="evenodd" d="M.44 13.167a1.5 1.5 0 1 0 2.12 2.122l5.304-5.304 5.303 5.304a1.5 1.5 0 1 0 2.122-2.121L9.985 7.864l5.304-5.303A1.5 1.5 0 1 0 13.167.439L7.864 5.743 2.56.44A1.5 1.5 0 0 0 .439 2.56l5.304 5.304-5.304 5.303z" fill="currentColor"/>
  </symbol>
  <symbol viewBox="0 0 11 14" fill="none" xmlns="http://www.w3.org/2000/svg" id="chevron-left-bold">
    <path d="M8.772 2.28L4.228 6.824l4.544 4.544" stroke="currentColor" stroke-width="5"/>
  </symbol>
  <symbol viewBox="0 0 11 13" fill="none" xmlns="http://www.w3.org/2000/svg" id="chevron-right-bold">
    <path d="M2 2l4.544 4.544L2 11.088" stroke="currentColor" stroke-width="5"/>
  </symbol>
  <symbol viewBox="0 0 24 24" fill="none" xmlns="http://www.w3.org/2000/svg" id="trolleybus">
    <path d="M17 19a1 1 0 1 0 0-2 1 1 0 0 0 0 2zM7 19a1 1 0 1 0 0-2 1 1 0 0 0 0 2z" fill="#000"/>
    <path d="M20.875 19.353l-.765-13A2.503 2.503 0 0 0 17.614 4H6.386A2.503 2.503 0 0 0 3.89 6.353l-.765 13c-.041.695.2 1.356.677 1.862A2.478 2.478 0 0 0 5.62 22h12.758a2.48 2.48 0 0 0 1.819-.785 2.476 2.476 0 0 0 .677-1.862zM5.834 7.417A1.501 1.501 0 0 1 7.332 6h9.336c.796 0 1.454.623 1.498 1.417l.333 6.056c0 1.332-4.071 1.527-6.5 1.527-2.427 0-6.5-.195-6.5-1.5l.335-6.083zM14 17.5a.5.5 0 0 1-.5.5h-3a.5.5 0 0 1 0-1h3a.5.5 0 0 1 .5.5zM7 20c-1.103 0-2-.897-2-2s.897-2 2-2 2 .897 2 2-.897 2-2 2zm7 0h-4a.5.5 0 0 1 0-1h4a.5.5 0 0 1 0 1zm3 0c-1.103 0-2-.897-2-2s.897-2 2-2 2 .897 2 2-.897 2-2 2zm.9-18.8C17.75 1 16.759 0 12 0 7.24 0 6.25 1 6.1 1.2a.516.516 0 0 0 .088.715c.094.07.203.105.309.105a.473.473 0 0 0 .38-.192C6.885 1.82 7.752 1 12 1c4.197 0 5.094.8 5.1.8a.5.5 0 0 0 .8-.6z" fill="currentColor"/>
    <path d="M13.697.54a.5.5 0 0 0-.656.263L12 3.23 10.96.804a.499.499 0 1 0-.92.393l1.5 3.5a.498.498 0 0 0 .92-.001l1.5-3.5a.5.5 0 0 0-.263-.656zM7.5 21a.5.5 0 0 0-.5.5H6a.5.5 0 0 0-1 0v1c0 .827.673 1.5 1.5 1.5S8 23.327 8 22.5v-1a.5.5 0 0 0-.5-.5zm11 0a.5.5 0 0 0-.5.5h-1a.5.5 0 0 0-1 0v1c0 .827.673 1.5 1.5 1.5s1.5-.673 1.5-1.5v-1a.5.5 0 0 0-.5-.5zM20 7a.5.5 0 0 0 0 1v3a.5.5 0 0 0 0 1h.5c.827 0 1.5-.673 1.5-1.5V9c0-1.103-.897-2-2-2zM4 11V8a.5.5 0 0 0 0-1c-1.103 0-2 .897-2 2v1.5c0 .827.673 1.5 1.5 1.5H4a.5.5 0 0 0 0-1z" fill="currentColor"/>
  </symbol>
  <symbol viewBox="0 0 24 24" fill="none" xmlns="http://www.w3.org/2000/svg" id="tramvay">
    <g clip-path="url(#clip0)" fill="currentColor">
      <path d="M16.499 17a.5.5 0 1 0 0-1 .5.5 0 0 0 0 1z"/>
      <path d="M19.123 5.334A2.506 2.506 0 0 0 16.628 3H7.37a2.506 2.506 0 0 0-2.495 2.334L3.999 18.5c0 1.473 4.216 2.5 8 2.5s8-1.027 7.999-2.533l-.875-13.133zM6.813 6.408A1.503 1.503 0 0 1 8.31 5h7.378c.791 0 1.448.618 1.497 1.408l.313 5.062c.001 1.422-4.209 1.53-5.499 1.53s-5.5-.108-5.5-1.5l.314-5.092zM7.499 18c-.827 0-1.5-.673-1.5-1.5s.673-1.5 1.5-1.5 1.5.673 1.5 1.5-.673 1.5-1.5 1.5zm6-1h-3a.5.5 0 0 1 0-1h3a.5.5 0 0 1 0 1zm3 1c-.827 0-1.5-.673-1.5-1.5s.673-1.5 1.5-1.5 1.5.673 1.5 1.5-.673 1.5-1.5 1.5z"/>
      <path d="M7.499 17a.5.5 0 1 0 0-1 .5.5 0 0 0 0 1zM16.87 1.164C16.762 1.045 15.707 0 11.999 0s-4.763 1.045-4.87 1.164a.493.493 0 0 0 .029.69.505.505 0 0 0 .7-.007C7.869 1.838 8.765 1 12 1c3.23 0 4.128.836 4.129.836a.5.5 0 0 0 .742-.672z"/>
      <path d="M13.756.571a.499.499 0 0 0-.686.171L12 2.528 10.926.742a.5.5 0 1 0-.857.515l1.5 2.5a.5.5 0 0 0 .857 0l1.5-2.5a.5.5 0 0 0-.17-.686zM6.826 19.62a.5.5 0 0 0-.705.054l-3 3.5a.5.5 0 1 0 .759.651l3-3.5a.5.5 0 0 0-.054-.705zm14.054 3.554l-3-3.5a.5.5 0 1 0-.76.651l3 3.5a.502.502 0 1 0 .759-.651z"/>
      <path d="M19.499 22h-15a.5.5 0 0 0 0 1h15a.5.5 0 0 0 0-1zM17.5 20H6.498a.5.5 0 0 0 0 1h11a.5.5 0 0 0 0-1z"/>
    </g>
    <defs>
      <clipPath id="clip0">
        <path fill="#fff" d="M0 0h24v24H0z"/>
      </clipPath>
    </defs>
  </symbol>
  <symbol viewBox="0 0 24 24" fill="none" xmlns="http://www.w3.org/2000/svg" id="bus">
    <path d="M2.5 11V8a.5.5 0 0 0 0-1A2.503 2.503 0 0 0 0 9.5v1c0 .827.673 1.5 1.5 1.5h1a.5.5 0 0 0 0-1zm19-4a.5.5 0 0 0 0 1v3a.5.5 0 0 0 0 1h1c.827 0 1.5-.673 1.5-1.5v-1C24 8.122 22.879 7 21.5 7zm-13 14a.5.5 0 0 0-.5.5H5a.5.5 0 0 0-1 0v1c0 .827.673 1.5 1.5 1.5h2c.827 0 1.5-.673 1.5-1.5v-1a.5.5 0 0 0-.5-.5zm11 0a.5.5 0 0 0-.5.5h-3a.5.5 0 0 0-1 0v1c0 .827.673 1.5 1.5 1.5h2c.827 0 1.5-.673 1.5-1.5v-1a.5.5 0 0 0-.5-.5z" fill="currentColor"/>
    <path d="M19.5 0h-15A2.503 2.503 0 0 0 2 2.5v17C2 20.878 3.121 22 4.5 22h15c1.379 0 2.5-1.122 2.5-2.5v-17C22 1.122 20.879 0 19.5 0zm-13 2h11c.827 0 1.5.673 1.5 1.5S18.327 5 17.5 5h-11C5.673 5 5 4.327 5 3.5S5.673 2 6.5 2zm0 17c-.827 0-1.5-.673-1.5-1.5S5.673 16 6.5 16s1.5.673 1.5 1.5S7.327 19 6.5 19zm11 0c-.827 0-1.5-.673-1.5-1.5s.673-1.5 1.5-1.5 1.5.673 1.5 1.5-.673 1.5-1.5 1.5zm2.5-6.5c0 .827-.673 1.5-1.5 1.5h-13c-.827 0-1.5-.673-1.5-1.5v-5C4 6.673 4.673 6 5.5 6h13c.827 0 1.5.673 1.5 1.5v5z" fill="currentColor"/>
  </symbol>
  <symbol viewBox="0 0 24 24" fill="none" xmlns="http://www.w3.org/2000/svg" id="download">
    <path d="M17.933 10.94a.748.748 0 0 0-.683-.44h-3V.75A.75.75 0 0 0 13.5 0h-3a.75.75 0 0 0-.75.75v9.75h-3a.75.75 0 0 0-.564 1.243l5.25 6a.747.747 0 0 0 1.128 0l5.25-6a.748.748 0 0 0 .119-.803z" fill="currentColor"/>
    <path d="M20.25 16.5V21H3.75v-4.5h-3v6c0 .83.672 1.5 1.5 1.5h19.5c.83 0 1.5-.67 1.5-1.5v-6h-3z" fill="currentColor"/>
  </symbol>
  <symbol viewBox="0 0 36 36" fill="none" xmlns="http://www.w3.org/2000/svg" id="document">
    <g clip-path="url(#clip0)" fill="#242226">
      <path d="M28.79 19.225h-1.388V2.475A2.548 2.548 0 0 0 24.857-.07h-12.78a3.3 3.3 0 0 0-2.485 1.102c-3.519 4.04-4.324 4.549-4.509 5.5-.28.9-.098-.235-.151 26.852a2.549 2.549 0 0 0 2.545 2.546h17.38a2.548 2.548 0 0 0 2.545-2.546v-1.377h1.053a2.748 2.748 0 0 0 2.744-2.745v-7.627a2.413 2.413 0 0 0-2.41-2.41zM10.987 1.675v2.718c0 .865-.704 1.57-1.57 1.57H7.076c3.773-4.187 3.569-4.053 3.913-4.289zm15.008 31.71a1.14 1.14 0 0 1-1.14 1.139H7.478a1.14 1.14 0 0 1-1.139-1.14c.002-27.036-.006-25.86.007-26.015H9.42a2.979 2.979 0 0 0 2.976-2.976V1.336h12.462c.628 0 1.14.511 1.14 1.14V22.98H17.79c-.907 0-1.645.738-1.645 1.645v5.735c0 .907.738 1.646 1.645 1.646h8.207v1.377zm3.797-4.123c0 .738-.6 1.338-1.338 1.338H17.789a.24.24 0 0 1-.239-.239v-5.735a.24.24 0 0 1 .24-.239c11.992 0 11.288.093 12.003-.262v5.137zm0-7.402c0 .618-.503 1.121-1.12 1.121h-1.27v-2.35h1.386c.554 0 1.004.45 1.004 1.004v.225z"/>
      <path d="M22.523 11.85h-.002a.702.702 0 1 0 .002 1.407.703.703 0 1 0 0-1.407zM9.655 13.257h10.056a.703.703 0 0 0 0-1.407H9.655a.703.703 0 1 0 0 1.407zm0 3.935h12.868a.703.703 0 0 0 0-1.406H9.655a.703.703 0 1 0 0 1.406zm13.571 3.231a.703.703 0 0 0-.703-.703H9.655a.703.703 0 1 0 0 1.407h12.868a.703.703 0 0 0 .703-.704z"/>
    </g>
    <defs>
      <clipPath id="clip0">
        <path fill="#fff" d="M0 0h36v36H0z"/>
      </clipPath>
    </defs>
  </symbol>
</svg>
