<svg width="0" height="0" class="hidden">
  <symbol viewBox="0 0 29 54" fill="none" xmlns="http://www.w3.org/2000/svg" id="bigLeftArrow">
    <path d="M1 1l26 26L1 53" stroke="#F7F7F7" stroke-width="2"></path>
  </symbol>
  <symbol viewBox="0 0 29 54" fill="none" xmlns="http://www.w3.org/2000/svg" id="bigRightArrow">
    <path d="M28 1L2 27l26 26" stroke="#F7F7F7" stroke-width="2"></path>
  </symbol>
  <symbol viewBox="0 0 16 15" fill="none" xmlns="http://www.w3.org/2000/svg" id="clocks">
    <path d="M1 15C1 4.91 15 4.636 15 15M10.77 3.818c0 1.569-1.253 2.818-2.77 2.818-1.517 0-2.77-1.25-2.77-2.818S6.484 1 8 1c1.517 0 2.77 1.25 2.77 2.818z" stroke="#F51212" stroke-width="2"></path>
  </symbol>
  <symbol viewBox="0 0 30 30" fill="none" xmlns="http://www.w3.org/2000/svg" id="comments">
    <circle cx="15" cy="15" r="13" stroke="#7C7C7C" stroke-width="2.2"></circle>
    <path d="M23.211 15.34h-6.74V7.235a1.235 1.235 0 0 0-2.471 0v9.34c0 .682.553 1.235 1.235 1.235h7.976a1.235 1.235 0 0 0 0-2.47z" fill="#7C7C7C"></path>
  </symbol>
  <symbol viewBox="0 0 32 6" fill="none" xmlns="http://www.w3.org/2000/svg" id="dislike">
    <circle cx="3" cy="3" r="3" fill="#C4C4C4"></circle>
    <circle cx="16" cy="3" r="3" fill="#C4C4C4"></circle>
    <circle cx="29" cy="3" r="3" fill="#C4C4C4"></circle>
  </symbol>
  <symbol viewBox="0 0 29 25" fill="none" xmlns="http://www.w3.org/2000/svg" id="dotsMenu">
    <path fill-rule="evenodd" clip-rule="evenodd" d="M7.292 24.534L3.9 18.66c-2.51-.598-3.03-2.107-2.393-4.146.633-2.985.171-6.248-.832-9.648l.673-.388 4.676 8.098 6.882-3.973c2.178-1.258 3.132-3.562 5.88-5.148C23.252.876 27.67.158 28.649 1.852c.978 1.694-1.853 5.163-6.32 7.74-2.747 1.587-5 1.134-7.398 2.519l-6.882 3.973 3.47 6.01-4.227 2.44z"
      fill="red"></path>
  </symbol>
  <symbol viewBox="0 0 22 22" fill="none" xmlns="http://www.w3.org/2000/svg" id="extLink">
    <path fill-rule="evenodd" clip-rule="evenodd" d="M14 8.036c0 3.342-2.695 6.036-6 6.036s-6-2.694-6-6.036C2 4.694 4.695 2 8 2s6 2.694 6 6.036zm-1.558 6.685A7.938 7.938 0 0 1 8 16.072c-4.418 0-8-3.598-8-8.036S3.582 0 8 0s8 3.598 8 8.036a8.027 8.027 0 0 1-2.046 5.368l7.18 7.182L19.72 22l-7.278-7.28z"
      fill="#7C7C7C"></path>
  </symbol>
  <symbol viewBox="0 0 28 28" fill="none" xmlns="http://www.w3.org/2000/svg" id="facebook">
    <path d="M15.713 2.725c-.548-1.717-2.977-1.717-3.525 0l-2.152 6.738h-7c-1.785 0-2.536 2.277-1.1 3.338l5.69 4.207-2.166 6.786c-.546 1.71 1.419 3.117 2.862 2.05l5.628-4.16 5.628 4.16c1.444 1.067 3.408-.34 2.862-2.05l-2.166-6.786 5.691-4.207c1.435-1.061.685-3.338-1.1-3.338h-7l-2.152-6.738z"
      fill="#fff" stroke="#99999A" stroke-width="1.7"></path>
  </symbol>
  <symbol viewBox="0 0 28 20" fill="none" xmlns="http://www.w3.org/2000/svg" id="hammer">
    <path d="M14 19c-5.362 0-10.174-3.52-12.89-9C3.826 4.52 8.638 1 14 1c5.362 0 10.174 3.52 12.89 9-2.716 5.48-7.528 9-12.89 9z" stroke="#99999A" stroke-width="2"></path>
    <circle cx="14" cy="10" r="4" stroke="#99999A" stroke-width="2"></circle>
  </symbol>
</svg>